<?xml version="1.0" encoding="utf-8"?>
<!-- Generator: Adobe Illustrator 18.1.1, SVG Export Plug-In . SVG Version: 6.00 Build 0)  -->
<!DOCTYPE svg PUBLIC "-//W3C//DTD SVG 1.1//EN" "http://www.w3.org/Graphics/SVG/1.1/DTD/svg11.dtd">
<svg version="1.1" id="Layer_1" xmlns="http://www.w3.org/2000/svg" xmlns:xlink="http://www.w3.org/1999/xlink" x="0px" y="0px"
	 viewBox="0 204.1 374.2 95.4" enable-background="new 0 204.1 374.2 95.4" xml:space="preserve">
<g>
	<g>
		<g>
			<defs>
				
					<text id="SVGID_1_" transform="matrix(1 0 0 1 -6.29 288.7744)" font-family="'Brown-Bold'" font-size="110" letter-spacing="41">PAST</text>
			</defs>
			<clipPath id="SVGID_2_">
				<use xlink:href="#SVGID_1_"  overflow="visible"/>
			</clipPath>
			<g clip-path="url(#SVGID_2_)">
				<g>
					<path d="M76.2-168.3l4.7,2c0,0-104.8,31.6-141.5,117.3C-78.4-7.6,27.6,85.1,7.7,131.5c-27.4,63.9-184.2,86.9-206.1,138
						c-26.9,62.7,35,133.8,35,133.8l-4.7-2c0,0-61.9-71.1-35-133.7c21.9-51,178.7-74,206.1-138C22.9,83.1-83-9.7-65.2-51.2
						C-28.5-136.8,76.2-168.3,76.2-168.3z"/>
					<path d="M66.8-172.3l4.7,2c0,0-104.8,31.6-141.5,117.3C-87.8-11.5,18.2,81.1-1.7,127.5c-27.4,63.9-184.2,86.9-206.1,138
						c-26.9,62.7,35,133.8,35,133.8l-4.7-2c0,0-61.9-71.1-35-133.7c21.9-51,178.7-74,206.1-138.1C13.5,79-92.4-13.8-74.6-55.3
						C-37.9-140.9,66.8-172.3,66.8-172.3z"/>
					<path d="M57.4-176.3l4.7,2c0,0-104.8,31.6-141.5,117.3C-97.2-15.5,8.8,77.1-11.1,123.5c-27.4,63.9-184.2,86.8-206.1,137.9
						c-26.9,62.7,35,133.8,35,133.8l-4.7-2c0,0-61.9-71.1-35-133.7c21.9-51,178.7-74,206.1-138C4.1,75-101.8-17.8-84-59.3
						C-47.3-144.9,57.4-176.3,57.4-176.3z"/>
					<path d="M48-180.4l4.7,2c0,0-104.8,31.6-141.5,117.3C-106.6-19.5-0.6,73-20.5,119.5c-27.4,63.9-184.2,86.9-206.1,138
						c-26.9,62.7,35,133.8,35,133.8l-4.7-2c0,0-61.9-71.1-35-133.7c21.9-51,178.7-74,206.1-138.1C-5.3,71-111.2-21.8-93.4-63.3
						C-56.7-148.9,48-180.4,48-180.4z"/>
					<path d="M38.6-184.4l4.7,2c0,0-104.8,31.6-141.5,117.3C-116.1-23.6-10,69-29.9,115.5c-27.4,63.9-184.2,86.9-206.1,138
						c-26.9,62.7,35,133.8,35,133.8l-4.7-2c0,0-61.9-71.1-35-133.7c21.9-51.1,178.7-74.1,206.1-138.1c19.9-46.5-86-139.3-68.2-180.8
						C-66.2-153,38.6-184.4,38.6-184.4z"/>
					<path d="M29.2-188.5l4.7,2c0,0-104.8,31.6-141.5,117.3c-17.8,41.5,88.3,134.1,68.3,180.5c-27.4,63.9-184.2,86.9-206.1,138
						c-26.9,62.7,35,133.8,35,133.8l-4.7-2c0,0-61.9-71.1-35-133.7c21.9-51,178.7-74,206.1-138.1c19.9-46.4-86-139.2-68.2-180.8
						C-75.6-157,29.2-188.5,29.2-188.5z"/>
					<path d="M19.8-192.5l4.7,2c0,0-104.8,31.6-141.5,117.3C-134.9-31.7-28.8,61-48.8,107.4c-27.4,63.9-184.2,86.9-206.1,138
						c-26.9,62.7,35,133.8,35,133.8l-4.7-2c0,0-61.9-71.1-35-133.7c21.9-51,178.7-74,206.1-138.1c19.9-46.5-86-139.3-68.2-180.8
						C-85-161.1,19.8-192.5,19.8-192.5z"/>
					<path d="M10.3-196.5l4.7,2c0,0-104.8,31.6-141.5,117.3c-17.8,41.4,88.3,134.1,68.3,180.5c-27.4,63.9-184.2,86.9-206.1,138
						c-26.9,62.7,35,133.8,35,133.8l-4.7-2c0,0-61.9-71.1-35-133.7c21.9-51,178.7-74,206.1-138.1C-43,54.8-148.9-38-131.1-79.5
						C-94.4-165,10.3-196.5,10.3-196.5z"/>
					<path d="M0.9-200.5l4.7,2c0,0-104.8,31.6-141.5,117.3C-153.7-39.8-47.6,52.9-67.5,99.3c-27.4,63.9-184.2,86.9-206.1,138
						c-26.9,62.7,35,133.8,35,133.8l-4.7-2c0,0-61.9-71.1-35-133.7c21.9-51,178.6-74,206.1-138.1c19.9-46.5-86-139.3-68.2-180.8
						C-103.8-169.1,0.9-200.5,0.9-200.5z"/>
					<path d="M-8.4-204.5l4.7,2c0,0-104.8,31.6-141.5,117.3C-163.1-43.8-57,48.9-76.9,95.3c-27.4,63.9-184.2,86.9-206.1,138
						C-309.8,296-248,367-248,367l-4.7-2c0,0-61.9-71.1-35-133.7c21.9-51.1,178.6-74.1,206.1-138.1c19.9-46.5-86-139.3-68.2-180.8
						C-113.2-173.1-8.4-204.5-8.4-204.5z"/>
					<path d="M-17.8-208.6l4.7,2c0,0-104.8,31.6-141.5,117.3C-172.4-47.8-66.4,44.8-86.3,91.2c-27.4,63.9-184.2,86.9-206.1,138
						c-26.9,62.7,35,133.8,35,133.8l-4.7-2c0,0-61.9-71.1-35-133.7c21.9-51,178.7-74,206.1-138.1c19.9-46.5-86-139.3-68.2-180.8
						C-122.5-177.1-17.8-208.6-17.8-208.6z"/>
					<path d="M-27.2-212.6l4.7,2c0,0-104.8,31.6-141.5,117.3C-181.8-51.8-75.8,40.8-95.7,87.2c-27.4,63.9-184.2,86.8-206.1,138
						c-26.9,62.7,35,133.8,35,133.8l-4.7-2c0,0-61.9-71.1-35-133.7c21.9-51,178.7-74,206.1-138.1c19.9-46.5-86-139.3-68.2-180.8
						C-131.9-181.2-27.2-212.6-27.2-212.6z"/>
					<path d="M-36.6-216.7l4.7,2c0,0-104.8,31.6-141.5,117.3C-191.2-56-85.1,36.7-105.1,83.1c-27.4,63.9-184.2,86.9-206.1,138
						c-26.9,62.7,35,133.8,35,133.8l-4.7-2c0,0-61.9-71.1-35-133.7c21.9-51,178.7-74,206.1-138.1c19.9-46.5-86-139.3-68.2-180.8
						C-141.3-185.2-36.6-216.7-36.6-216.7z"/>
					<path d="M-46-220.7l4.7,2c0,0-104.8,31.6-141.5,117.3C-200.6-60-94.5,32.7-114.5,79.1c-27.4,63.9-184.2,86.9-206.1,138
						c-26.9,62.7,35,133.8,35,133.8l-4.7-2c0,0-61.9-71.1-35-133.7c21.9-51,178.7-74,206.1-138.1c19.9-46.5-86-139.3-68.2-180.8
						C-150.7-189.3-46-220.7-46-220.7z"/>
					<path d="M-55.4-224.7l4.7,2c0,0-104.8,31.6-141.5,117.3C-210-63.9-104,28.7-123.9,75.2c-27.4,63.9-184.2,86.9-206.1,138
						c-26.9,62.7,35,133.8,35,133.8l-4.7-2c0,0-61.9-71.1-35-133.7c21.9-51,178.7-74,206.1-138.1c19.9-46.5-86-139.3-68.2-180.8
						C-160.1-193.3-55.4-224.7-55.4-224.7z"/>
					<path d="M-64.8-228.8l4.7,2c0,0-104.8,31.6-141.5,117.3C-219.4-68-113.4,24.7-133.3,71.1C-160.7,135-317.5,158-339.4,209
						c-26.8,62.7,35.1,133.8,35.1,133.8l-4.7-2c0,0-61.9-71.1-35-133.7c21.9-51,178.7-74,206.1-138.1c19.9-46.5-86-139.3-68.2-180.8
						C-169.5-197.3-64.8-228.8-64.8-228.8z"/>
					<path stroke="#000000" stroke-width="1.0567" stroke-miterlimit="10" d="M-74.2-232.7l4.7,2c0,0-104.8,31.6-141.5,117.3
						C-228.9-72-122.8,20.7-142.7,67.1c-27.4,63.9-184.1,86.8-206,138c-26.9,62.7,35,133.8,35,133.8l-4.7-2c0,0-61.9-71.1-35-133.7
						c21.9-51,178.7-74,206.1-138.1c19.9-46.5-86-139.3-68.2-180.8C-178.9-201.3-74.2-232.7-74.2-232.7z"/>
					<path d="M687,93.7l4.7,2c0,0-104.8,31.6-141.5,117.3c-17.8,41.4,88.3,134.1,68.3,180.5c-27.4,63.9-184.2,86.9-206.1,138
						c-26.9,62.7,35,133.8,35,133.8l-4.7-2c0,0-61.9-71.1-35-133.7c21.9-51,178.7-74,206.1-138.1c19.9-46.5-86-139.3-68.2-180.8
						C582.3,125.2,687,93.7,687,93.7z"/>
					<path d="M677.7,89.7l4.7,2c0,0-104.8,31.6-141.5,117.3c-17.8,41.4,88.3,134.1,68.3,180.5c-27.4,63.9-184.2,86.9-206.1,138
						c-26.9,62.7,35,133.8,35,133.8l-4.7-2c0,0-61.9-71.1-35-133.7c21.9-51,178.7-74,206.1-138.1c19.9-46.5-86.1-139.3-68.2-180.8
						C573,121.1,677.7,89.7,677.7,89.7z"/>
					<path d="M668.3,85.6l4.7,2c0,0-104.8,31.6-141.5,117.3c-17.8,41.4,88.3,134.1,68.3,180.5c-27.4,63.9-184.2,86.9-206.1,138
						c-26.9,62.7,35,133.8,35,133.8l-4.7-2c0,0-61.9-71.1-35-133.7c21.9-51,178.7-74,206.1-138.1c19.9-46.4-86-139.2-68.2-180.7
						C563.6,117.1,668.3,85.6,668.3,85.6z"/>
					<path d="M658.9,81.6l4.7,2c0,0-104.8,31.6-141.5,117.3c-17.8,41.4,88.3,134.1,68.3,180.5c-27.4,63.9-184.2,86.9-206.1,138
						c-26.9,62.7,35,133.8,35,133.8l-4.7-2c0,0-61.9-71.1-35-133.7c21.9-51,178.7-74,206.1-138.1c19.9-46.5-86-139.3-68.2-180.8
						C554.2,113,658.9,81.6,658.9,81.6z"/>
					<path d="M649.5,77.6l4.7,2c0,0-104.8,31.6-141.5,117.3C494.9,238.4,600.9,331,581,377.5c-27.4,63.9-184.2,86.9-206.1,138
						c-26.9,62.7,35,133.8,35,133.8l-4.7-2c0,0-61.9-71.1-35-133.7c21.9-51,178.7-74,206.1-138.1c19.9-46.5-86-139.3-68.2-180.8
						C544.8,109,649.5,77.6,649.5,77.6z"/>
					<path d="M640.1,73.5l4.7,2c0,0-104.8,31.6-141.5,117.3c-17.8,41.5,88.3,134.1,68.3,180.5c-27.4,63.9-184.2,86.9-206.1,138
						c-26.9,62.7,35,133.8,35,133.8l-4.7-2c0,0-61.9-71.1-35-133.7c21.9-51,178.7-74,206.1-138.1c19.9-46.5-86-139.3-68.2-180.8
						C535.4,105,640.1,73.5,640.1,73.5z"/>
					<path d="M630.7,69.6l4.7,2c0,0-104.8,31.6-141.5,117.3c-17.8,41.4,88.3,134.1,68.3,180.5c-27.4,63.9-184.2,86.9-206.1,138
						c-26.8,62.7,35,133.8,35,133.8l-4.7-2c0,0-61.9-71.1-35-133.7c21.9-51,178.7-74,206.1-138.1c19.9-46.5-86-139.3-68.2-180.8
						C526,100.9,630.7,69.6,630.7,69.6z"/>
					<path d="M621.3,65.5l4.7,2c0,0-104.8,31.6-141.5,117.3c-17.8,41.4,88.3,134.1,68.3,180.5c-27.4,63.9-184.2,86.9-206.1,138
						c-26.9,62.7,35,133.8,35,133.8l-4.7-2c0,0-61.9-71.1-35-133.7c21.9-51,178.7-74,206.1-138.1c19.9-46.5-86-139.3-68.2-180.8
						C516.6,97,621.3,65.5,621.3,65.5z"/>
					<path d="M611.9,61.5l4.7,2c0,0-104.8,31.6-141.5,117.3c-17.8,41.4,88.3,134.1,68.3,180.5c-27.4,63.9-184.2,86.9-206.1,138
						c-26.9,62.7,35,133.8,35,133.8l-4.7-2c0,0-61.9-71.1-35-133.7c21.9-51,178.7-74,206.1-138.1c19.9-46.5-86-139.3-68.2-180.8
						C507.1,92.9,611.9,61.5,611.9,61.5z"/>
					<path d="M602.5,57.5l4.7,2c0,0-104.8,31.6-141.5,117.3C447.9,218.2,554,310.9,534,357.3c-27.4,63.9-184.2,86.9-206.1,138
						C301,558,362.9,629,362.9,629l-4.7-2c0,0-61.9-71.1-35-133.7c21.9-51,178.7-74,206.1-138.1c20-46.5-86-139.3-68.2-180.8
						C497.7,88.9,602.5,57.5,602.5,57.5z"/>
					<path d="M593.1,53.4l4.7,2c0,0-104.8,31.6-141.5,117.3c-17.8,41.4,88.3,134.1,68.3,180.5c-27.4,63.9-184.2,86.9-206.1,138
						c-26.9,62.7,35,133.8,35,133.8l-4.7-2c0,0-61.9-71.1-35-133.7c21.9-51,178.7-74,206.1-138.1c19.9-46.5-86-139.3-68.2-180.8
						C488.3,84.9,593.1,53.4,593.1,53.4z"/>
					<path d="M583.7,49.4l4.7,2c0,0-104.8,31.6-141.5,117.3c-17.8,41.4,88.3,134.1,68.3,180.5c-27.4,63.9-184.2,86.9-206.1,138
						c-26.9,62.7,35,133.8,35,133.8l-4.7-2c0,0-61.9-71.1-35-133.7c21.9-51,178.7-74,206.1-138.1c19.9-46.5-86-139.3-68.2-180.8
						C478.9,80.8,583.7,49.4,583.7,49.4z"/>
					<path d="M574.3,45.3l4.7,2c0,0-104.8,31.6-141.5,117.3c-17.8,41.4,88.3,134.1,68.3,180.5c-27.4,63.9-184.2,86.9-206.1,138
						c-26.9,62.7,35,133.8,35,133.8l-4.7-2c0,0-61.9-71.1-35-133.7c21.9-51,178.7-74,206.1-138.1c19.9-46.5-86-139.3-68.2-180.8
						C469.6,76.8,574.3,45.3,574.3,45.3z"/>
					<path d="M564.9,41.3l4.7,2c0,0-104.8,31.6-141.5,117.3c-17.8,41.4,88.2,134.1,68.3,180.5C469,405,312.2,428,290.3,479.1
						c-26.9,62.7,35,133.8,35,133.8l-4.7-2c0,0-61.9-71.1-35-133.7c21.9-51,178.7-74,206.1-138.1c19.9-46.5-86-139.3-68.2-180.8
						C460.2,72.7,564.9,41.3,564.9,41.3z"/>
					<path d="M555.5,37.2l4.7,2c0,0-104.8,31.6-141.5,117.3C400.9,198,506.9,290.7,487,337.1C459.6,401,302.8,424,280.9,475
						c-26.9,62.7,35,133.8,35,133.8l-4.7-2c0,0-61.9-71.1-35-133.7c21.9-51,178.7-74,206.1-138.1c19.9-46.4-86-139.2-68.2-180.7
						C450.8,68.7,555.5,37.2,555.5,37.2z"/>
					<path d="M546.1,33.2l4.7,2c0,0-104.8,31.6-141.5,117.3c-17.8,41.4,88.3,134.1,68.3,180.5c-27.4,64-184.2,87-206.1,138
						c-26.9,62.7,35,133.8,35,133.8l-4.7-2c0,0-61.9-71.1-35-133.7c21.9-51,178.7-74,206.1-138.1c19.9-46.5-86-139.2-68.2-180.8
						C441.4,64.6,546.1,33.2,546.1,33.2z"/>
					<path d="M536.7,29.3l4.7,2c0,0-104.8,31.6-141.5,117.3c-17.8,41.4,88.3,134.1,68.3,180.5C440.8,393,284,416,262.1,467.1
						c-26.9,62.7,35,133.8,35,133.8l-4.7-2c0,0-61.9-71.1-35-133.7c21.9-51,178.7-74,206.1-138.1c19.9-46.5-86-139.3-68.2-180.8
						C432,60.7,536.7,29.3,536.7,29.3z"/>
					<path d="M555.5,37.2l4.7,2c0,0-104.8,31.6-141.5,117.3C400.9,198,506.9,290.7,487,337.1C459.6,401,302.8,424,280.9,475
						c-26.9,62.7,35,133.8,35,133.8l-4.7-2c0,0-61.9-71.1-35-133.7c21.9-51,178.7-74,206.1-138.1c19.9-46.4-86-139.2-68.2-180.7
						C450.8,68.7,555.5,37.2,555.5,37.2z"/>
					<path d="M546.1,33.2l4.7,2c0,0-104.8,31.6-141.5,117.3c-17.8,41.4,88.3,134.1,68.3,180.5c-27.4,64-184.2,87-206.1,138
						c-26.9,62.7,35,133.8,35,133.8l-4.7-2c0,0-61.9-71.1-35-133.7c21.9-51,178.7-74,206.1-138.1c19.9-46.5-86-139.2-68.2-180.8
						C441.4,64.6,546.1,33.2,546.1,33.2z"/>
					<path d="M536.7,29.3l4.7,2c0,0-104.8,31.6-141.5,117.3c-17.8,41.4,88.3,134.1,68.3,180.5C440.8,393,284,416,262.1,467.1
						c-26.9,62.7,35,133.8,35,133.8l-4.7-2c0,0-61.9-71.1-35-133.7c21.9-51,178.7-74,206.1-138.1c19.9-46.5-86-139.3-68.2-180.8
						C432,60.7,536.7,29.3,536.7,29.3z"/>
					<path d="M527.3,25.2l4.7,2c0,0-104.8,31.6-141.5,117.3C372.7,186,478.7,278.6,458.8,325c-27.4,63.9-184.2,86.9-206.1,138
						c-26.8,62.7,35.1,133.8,35.1,133.8l-4.7-2c0,0-61.9-71.1-35-133.7C270,410,426.8,387,454.2,323c19.9-46.5-86-139.3-68.2-180.8
						C422.6,56.7,527.3,25.2,527.3,25.2z"/>
					<path d="M517.9,21.2l4.7,2c0,0-104.8,31.6-141.5,117.3c-17.8,41.4,88.3,134.1,68.3,180.5c-27.4,63.9-184.2,86.9-206.1,138
						c-26.9,62.7,35,133.8,35,133.8l-4.7-2c0,0-61.9-71.1-35-133.7c21.9-51,178.7-74,206.1-138.1c20-46.5-86-139.3-68.2-180.8
						C413.2,52.6,517.9,21.2,517.9,21.2z"/>
					<path d="M508.5,17.1l4.7,2c0,0-104.8,31.6-141.5,117.3C353.9,177.8,460,270.5,440,316.9c-27.4,63.9-184.2,86.9-206.1,138
						c-26.9,62.7,35,133.8,35,133.8l-4.7-2c0,0-61.9-71.1-35-133.7c21.9-51,178.7-74,206.1-138.1c20-46.4-86-139.2-68.2-180.7
						C403.8,48.6,508.5,17.1,508.5,17.1z"/>
					<path d="M499.1,13.1l4.7,2c0,0-104.8,31.6-141.5,117.3c-17.8,41.4,88.3,134.1,68.3,180.5c-27.4,63.9-184.2,86.9-206.1,138
						c-26.9,62.7,35,133.8,35,133.8l-4.7-2c0,0-61.9-71.1-35-133.7c21.9-51,178.7-74,206.1-138.1c20-46.5-86-139.3-68.2-180.8
						C394.4,44.5,499.1,13.1,499.1,13.1z"/>
					<path d="M489.7,9.1l4.7,2c0,0-104.8,31.6-141.5,117.3C335,169.9,441.1,262.5,421.1,309c-27.4,63.9-184.2,86.9-206.1,138
						c-26.9,62.7,35,133.8,35,133.8l-4.7-2c0,0-61.9-71.1-35-133.7c21.9-51,178.7-74,206.1-138.1c19.9-46.5-86-139.3-68.2-180.8
						C384.9,40.5,489.7,9.1,489.7,9.1z"/>
					<path d="M480.4,5l4.7,2c0,0-104.8,31.6-141.5,117.3c-17.9,41.5,88.2,134.1,68.3,180.5c-27.4,63.9-184.2,86.9-206.1,138
						c-26.9,62.7,35,133.8,35,133.8l-4.7-2c0,0-61.9-71.1-35-133.7c21.9-51,178.7-74,206.1-138.1c19.9-46.5-86.1-139.2-68.2-180.8
						C375.6,36.5,480.4,5,480.4,5z"/>
					<path d="M470.9,1l4.7,2c0,0-104.8,31.6-141.5,117.3c-17.9,41.4,88.2,134.1,68.3,180.5c-27.4,63.9-184.2,86.9-206.1,138
						c-26.9,62.7,35,133.8,35,133.8l-4.7-2c0,0-61.9-71.1-35-133.7c21.9-51,178.7-74,206.1-138.1c19.9-46.5-86-139.3-68.2-180.8
						C366.2,32.4,470.9,1,470.9,1z"/>
					<path d="M461.5-3.1l4.7,2c0,0-104.8,31.6-141.5,117.3C306.9,157.8,413,250.4,393,296.8c-27.4,63.9-184.2,86.9-206.1,138
						c-26.9,62.7,35,133.8,35,133.8l-4.7-2c0,0-61.9-71.1-35-133.7c21.9-51,178.7-74,206.1-138.1c19.9-46.5-86-139.3-68.2-180.8
						C356.8,28.4,461.5-3.1,461.5-3.1z"/>
					<path d="M452.1-7l4.7,2c0,0-104.8,31.6-141.5,117.3c-17.8,41.4,88.3,134.1,68.3,180.5c-27.4,63.9-184.2,86.9-206.1,138
						c-26.9,62.7,35,133.8,35,133.8l-4.7-2c0,0-61.9-71.1-35-133.7c21.9-51,178.7-74,206.1-138.1c19.9-46.5-86-139.3-68.2-180.8
						C347.4,24.4,452.1-7,452.1-7z"/>
					<path d="M442.7-11l4.7,2c0,0-104.8,31.6-141.5,117.3c-17.8,41.4,88.3,134.1,68.3,180.4c-27.4,63.9-184.2,86.9-206.1,138
						c-26.9,62.7,35,133.8,35,133.8l-4.7-2c0,0-61.9-71.1-35-133.7c21.9-51,178.7-74,206.1-138.1c19.9-46.4-86-139.2-68.2-180.7
						C338,20.4,442.7-11,442.7-11z"/>
					<path d="M433.3-15.1l4.7,2c0,0-104.8,31.6-141.5,117.3c-17.8,41.4,88.3,134.1,68.3,180.5c-27.4,63.9-184.2,86.9-206.1,138
						c-26.8,62.7,35,133.8,35,133.8l-4.7-2c0,0-61.9-71.1-35-133.7c21.9-51,178.7-74,206.1-138.1c19.9-46.5-86-139.2-68.2-180.8
						C328.6,16.3,433.3-15.1,433.3-15.1z"/>
					<path d="M423.9-19.1l4.7,2c0,0-104.8,31.6-141.5,117.3c-17.8,41.4,88.3,134.1,68.3,180.5c-27.4,63.9-184.2,86.9-206.1,138
						c-26.8,62.7,35.1,133.8,35.1,133.8l-4.7-2c0,0-61.9-71.1-35-133.7c21.9-51,178.7-74,206.1-138.1c19.9-46.5-86-139.3-68.2-180.8
						C319.2,12.3,423.9-19.1,423.9-19.1z"/>
					<path d="M414.5-23.2l4.7,2c0,0-104.8,31.6-141.5,117.3C259.9,137.5,366,230.2,346,276.6c-27.4,63.9-184.2,86.9-206.1,138
						C113.1,477.3,175,548.4,175,548.4l-4.7-2c0,0-61.9-71.1-35-133.7c21.9-51,178.7-74,206.1-138.1c19.9-46.5-86-139.3-68.2-180.8
						C309.8,8.3,414.5-23.2,414.5-23.2z"/>
					<path d="M405.1-27.2l4.7,2c0,0-104.8,31.6-141.5,117.3c-17.8,41.4,88.3,134.1,68.4,180.5c-27.4,63.9-184.2,86.9-206.1,138
						c-26.9,62.7,35,133.8,35,133.8l-4.7-2c0,0-61.9-71.1-35-133.7c21.9-51,178.7-74,206.1-138.1c19.9-46.5-86-139.3-68.2-180.8
						C300.4,4.2,405.1-27.2,405.1-27.2z"/>
					<path d="M395.7-31.3l4.7,2c0,0-104.8,31.6-141.5,117.3c-17.8,41.5,88.3,134.2,68.4,180.5c-27.4,63.9-184.2,86.9-206.1,138
						c-26.9,62.7,35,133.8,35,133.8l-4.7-2c0,0-61.9-71.1-35-133.7c21.9-51,178.7-74,206.1-138.1c19.9-46.5-86-139.3-68.2-180.8
						C291,0.2,395.7-31.3,395.7-31.3z"/>
					<path d="M386.4-35.3l4.7,2c0,0-104.8,31.6-141.5,117.3c-17.8,41.4,88.3,134.1,68.3,180.5c-27.4,63.9-184.2,86.9-206.1,138
						c-26.9,62.7,35,133.8,35,133.8l-4.7-2c0,0-61.9-71.1-35-133.7c21.9-51,178.7-74,206.1-138.1c19.9-46.5-86-139.3-68.2-180.8
						C281.6-3.9,386.4-35.3,386.4-35.3z"/>
					<path d="M377-39.3l4.7,2c0,0-104.8,31.6-141.5,117.3c-17.8,41.4,88.3,134.1,68.3,180.5c-27.4,63.9-184.2,86.9-206.1,138
						c-26.9,62.7,35,133.8,35,133.8l-4.7-2c0,0-61.9-71.1-35-133.7c21.9-51,178.7-74,206.1-138.1c19.9-46.5-86-139.3-68.2-180.8
						C272.2-7.9,377-39.3,377-39.3z"/>
					<path d="M367.6-43.3l4.7,2c0,0-104.8,31.6-141.5,117.3C213,117.5,319,210.1,299.1,256.5c-27.4,63.9-184.2,86.9-206.1,138
						c-26.9,62.7,35,133.8,35,133.8l-4.7-2c0,0-61.9-71.1-35-133.7c21.9-51,178.7-74,206.1-138.1c19.9-46.5-86-139.3-68.2-180.8
						C262.8-11.9,367.6-43.3,367.6-43.3z"/>
					<path d="M358.1-47.3l4.7,2c0,0-104.8,31.6-141.5,117.3c-17.8,41.4,88.3,134.1,68.3,180.5c-27.4,63.9-184.2,86.9-206.1,138
						c-26.9,62.7,35,133.8,35,133.8l-4.7-2c0,0-61.9-71.1-35-133.7c21.9-51,178.7-74,206.1-138.1c19.9-46.5-86-139.3-68.2-180.8
						C253.4-15.9,358.1-47.3,358.1-47.3z"/>
					<path d="M348.7-51.4l4.7,2c0,0-104.8,31.6-141.5,117.3c-17.8,41.5,88.3,134.2,68.3,180.5c-27.4,63.9-184.2,86.9-206.1,138
						c-26.9,62.7,35,133.8,35,133.8l-4.7-2c0,0-61.9-71.1-35-133.7c21.9-51,178.7-74,206.1-138.1c19.9-46.4-86-139.2-68.2-180.7
						C244-19.9,348.7-51.4,348.7-51.4z"/>
					<path d="M339.3-55.4l4.7,2c0,0-104.8,31.6-141.5,117.3c-17.8,41.4,88.3,134.1,68.3,180.5c-27.4,63.9-184.2,86.9-206.1,138
						c-26.9,62.7,35,133.8,35,133.8l-4.7-2c0,0-61.9-71.1-35-133.7c21.9-51,178.7-74,206.1-138.1c19.9-46.5-86-139.3-68.2-180.8
						C234.6-24,339.3-55.4,339.3-55.4z"/>
					<path d="M329.9-59.4l4.7,2c0,0-104.8,31.6-141.5,117.3c-17.8,41.4,88.3,134.1,68.3,180.4c-27.4,63.9-184.2,86.9-206.1,138
						c-26.8,62.8,35.1,133.9,35.1,133.9l-4.7-2c0,0-61.9-71.1-35-133.7c21.9-51,178.7-74,206.1-138.1c19.9-46.5-86-139.3-68.2-180.8
						C225.2-28,329.9-59.4,329.9-59.4z"/>
					<path d="M320.5-63.5l4.7,2c0,0-104.8,31.6-141.5,117.3C165.9,97.3,272,189.9,252,236.3c-27.4,63.9-184.1,86.9-206,138
						C19.1,437,81,508.1,81,508.1l-4.7-2c0,0-61.9-71.1-35-133.7c21.9-51,178.7-74,206.1-138.1c19.9-46.5-86-139.3-68.2-180.8
						C215.8-32,320.5-63.5,320.5-63.5z"/>
					<path d="M311.1-67.5l4.7,2c0,0-104.8,31.6-141.5,117.3c-17.8,41.4,88.3,134.1,68.3,180.5c-27.4,63.9-184.1,86.8-206,138
						c-26.9,62.7,35,133.8,35,133.8l-4.7-2c0,0-61.9-71.1-35-133.7c21.9-51.1,178.6-74.1,206.1-138.1c19.9-46.5-86-139.3-68.2-180.8
						C206.4-36.1,311.1-67.5,311.1-67.5z"/>
					<path d="M301.7-71.6l4.7,2c0,0-104.8,31.6-141.5,117.3c-17.8,41.5,88.3,134.1,68.4,180.5c-27.5,63.9-184.2,86.9-206.1,138
						C0.3,428.9,62.2,500,62.2,500l-4.7-2c0,0-61.9-71.1-35-133.7c21.9-51,178.6-74,206.1-138.1c19.9-46.5-86-139.3-68.2-180.8
						C197-40.1,301.7-71.6,301.7-71.6z"/>
					<path d="M292.3-75.6l4.7,2c0,0-104.8,31.6-141.5,117.3c-17.8,41.4,88.3,134.1,68.3,180.5c-27.3,63.9-184.1,86.8-206,138
						c-26.9,62.7,35,133.8,35,133.8l-4.7-2c0,0-61.9-71.1-35-133.7c21.9-51,178.7-74,206.1-138.1c19.9-46.5-86-139.3-68.2-180.8
						C187.6-44.2,292.3-75.6,292.3-75.6z"/>
					<path d="M283-79.7l4.7,2c0,0-104.8,31.6-141.5,117.3c-17.9,41.5,88.2,134.2,68.3,180.5c-27.4,64-184.2,86.9-206.1,138
						c-26.9,62.7,35,133.9,35,133.9l-4.7-2c0,0-61.9-71.1-35-133.7c21.9-51,178.7-74,206.1-138.1c19.9-46.5-86.1-139.3-68.2-180.8
						C178.3-48.2,283-79.7,283-79.7z"/>
					<path d="M273.6-83.6l4.7,2c0,0-104.8,31.6-141.5,117.3c-17.8,41.4,88.3,134.1,68.3,180.5C177.7,280.1,20.9,303.1-1,354.2
						C-27.9,416.9,34,488,34,488l-4.7-2c0,0-61.9-71.1-35-133.7c21.9-51,178.7-74,206.1-138.1c19.9-46.5-86-139.3-68.2-180.8
						C168.9-52.2,273.6-83.6,273.6-83.6z"/>
					<path d="M264.2-87.6l4.7,2c0,0-104.8,31.6-141.5,117.3c-17.8,41.4,88.3,134.1,68.3,180.5c-27.4,63.9-184.2,86.9-206.1,138
						c-26.9,62.7,35,133.8,35,133.8l-4.7-2c0,0-61.9-71.1-35-133.7c21.9-51,178.7-74,206.1-138.1c19.9-46.5-86-139.3-68.2-180.8
						C159.4-56.2,264.2-87.6,264.2-87.6z"/>
					<path d="M254.8-91.7l4.7,2c0,0-104.8,31.6-141.5,117.3c-17.8,41.4,88.3,134.1,68.3,180.5C158.8,272,2.1,295-19.8,346.1
						c-26.9,62.7,35,133.8,35,133.8l-4.7-2c0,0-61.9-71.1-35-133.7c21.9-51,178.7-74,206.1-138.1c19.9-46.5-86-139.3-68.2-180.8
						C150-60.2,254.8-91.7,254.8-91.7z"/>
					<path d="M245.4-95.7l4.7,2c0,0-104.8,31.6-141.5,117.3C90.8,65,196.9,157.7,176.9,204.1C149.4,268-7.3,291-29.2,342.1
						c-26.9,62.7,35,133.8,35,133.8l-4.7-2c0,0-61.9-71.1-35-133.7c21.9-51.1,178.7-74,206.1-138.1c19.9-46.5-86-139.3-68.2-180.8
						C140.6-64.3,245.4-95.7,245.4-95.7z"/>
					<path d="M235.9-99.8l4.7,2c0,0-104.8,31.6-141.5,117.3C81.3,61,187.4,153.6,167.4,200c-27.4,64-184.1,87-206,138
						c-26.8,62.7,35,133.9,35,133.9l-4.7-2c0,0-61.9-71.1-35-133.7c21.8-51.2,178.6-74.2,206-138.1c19.9-46.5-86-139.3-68.2-180.8
						C131.2-68.3,235.9-99.8,235.9-99.8z"/>
					<path d="M226.5-103.8l4.7,2c0,0-104.8,31.6-141.5,117.3C71.9,57,178,149.6,158,196.1C130.6,260-26.1,283-47.9,334
						c-26.9,62.7,35,133.8,35,133.8l-4.7-2c0,0-61.9-71.1-35-133.7c21.8-51,178.6-74,206-138.1c19.9-46.5-86-139.3-68.2-180.8
						C121.8-72.4,226.5-103.8,226.5-103.8z"/>
					<path d="M217.1-107.8l4.7,2c0,0-104.8,31.6-141.5,117.3C62.5,53,168.5,145.6,148.6,192c-27.4,64-184.1,86.9-206,138
						c-26.9,62.8,35,133.9,35,133.9l-4.7-2c0,0-61.9-71.1-35-133.7C-40.2,277,116.6,254,144,190C163.9,143.5,58,50.7,75.8,9.2
						C112.4-76.4,217.1-107.8,217.1-107.8z"/>
					<path d="M207.7-111.9l4.7,2c0,0-104.8,31.6-141.5,117.3C53.1,48.9,159.1,141.5,139.2,188C111.8,251.9-45,274.9-66.9,326
						c-26.8,62.7,35.1,133.8,35.1,133.8l-4.7-2c0,0-61.9-71.1-35-133.7c21.9-51,178.7-74,206.1-138.1
						C154.5,139.4,48.5,46.7,66.3,5.1C103-80.4,207.7-111.9,207.7-111.9z"/>
					<path d="M198.3-115.9l4.7,2c0,0-104.8,31.6-141.5,117.3C43.7,44.9,149.7,137.6,129.9,184c-27.4,63.9-184.2,86.9-206.1,138
						c-26.9,62.7,35,133.8,35,133.8l-4.7-2c0,0-61.9-71.1-35-133.7c21.9-51,178.7-74,206.1-138.1C145.1,135.4,39.2,42.7,57,1.1
						C93.6-84.5,198.3-115.9,198.3-115.9z"/>
					<path d="M189-119.9l4.7,2c0,0-104.8,31.6-141.5,117.3c-17.8,41.4,88.3,134.1,68.3,180.5c-27.4,63.9-184.2,86.9-206.1,138
						c-26.9,62.7,35,133.8,35,133.8l-4.7-2c0,0-61.9-71.1-35-133.7c21.9-51,178.7-74,206.1-138.1C135.7,131.4,29.7,38.7,47.6-2.9
						C84.2-88.4,189-119.9,189-119.9z"/>
					<path d="M179.6-123.9l4.7,2c0,0-104.8,31.6-141.5,117.3C25,36.8,131,129.5,111.1,175.9C83.7,239.8-73.1,262.8-95,313.9
						c-26.9,62.7,35,133.8,35,133.8l-4.7-2c0,0-61.9-71.1-35-133.7c21.9-51,178.7-74,206.1-138.1C126.3,127.3,20.3,34.6,38.2-6.9
						C74.9-92.5,179.6-123.9,179.6-123.9z"/>
					<path d="M170.2-128l4.7,2c0,0-104.8,31.6-141.5,117.3c-17.8,41.5,88.2,134.2,68.3,180.5c-27.4,63.9-184.2,86.9-206.1,138
						c-26.9,62.7,35,133.9,35,133.9l-4.7-2c0,0-61.9-71.1-35-133.7C-87.2,257,69.6,234,97,169.9c19.9-46.5-86-139.3-68.2-180.8
						C65.5-96.5,170.2-128,170.2-128z"/>
					<path d="M160.8-132l4.7,2c0,0-104.8,31.6-141.5,117.3C6.2,28.9,112.2,121.4,92.3,167.8c-27.4,63.9-184.2,86.9-206.1,138
						c-26.9,62.7,35,133.8,35,133.8l-4.7-2c0,0-61.9-71.1-35-133.7c21.9-51,178.7-74,206.1-138.1C107.5,119.3,1.5,26.5,19.3-15
						C56.1-100.6,160.8-132,160.8-132z"/>
					<path d="M151.4-136l4.7,2c0,0-104.8,31.6-141.5,117.3c-17.8,41.4,88.3,134.1,68.3,180.5c-27.4,63.9-184.2,86.8-206.1,138
						c-26.9,62.7,35,133.8,35,133.8l-4.7-2c0,0-61.9-71.1-35-133.7c21.9-51.1,178.7-74.1,206.1-138.1C98.1,115.3-7.9,22.5,9.9-19
						C46.6-104.6,151.4-136,151.4-136z"/>
					<path d="M142-140.1l4.7,2c0,0-104.8,31.6-141.5,117.3c-17.8,41.5,88.3,134.1,68.3,180.5c-27.4,63.9-184.1,86.9-206.1,138
						c-26.9,62.7,35,133.8,35,133.8l-4.7-2c0,0-61.9-71.1-35-133.7c21.9-51,178.7-74,206.1-138.1c19.9-46.5-86-139.3-68.2-180.8
						C37.2-108.6,142-140.1,142-140.1z"/>
					<path d="M132.6-144.1l4.7,2c0,0-104.8,31.6-141.5,117.3C-22.1,16.7,84,109.3,64,155.8c-27.4,63.9-184,86.8-206,137.9
						c-26.8,62.7,35.1,133.8,35.1,133.8l-4.7-2c0,0-61.9-71.1-35-133.7c21.9-51,178.7-74,206.1-138.1c19.9-46.5-86-139.3-68.2-180.8
						C27.8-112.7,132.6-144.1,132.6-144.1z"/>
					<path d="M123.1-148.2l4.7,2c0,0-104.8,31.6-141.5,117.3c-17.8,41.5,88.3,134.2,68.3,180.5c-27.4,64-184.1,86.9-206,138
						c-26.9,62.7,35,133.8,35,133.8l-4.7-2c0,0-61.9-71.1-35-133.7c21.9-51,178.7-74,206.1-138.1C70,103.2-36.1,10.4-18.3-31.1
						C18.4-116.7,123.1-148.2,123.1-148.2z"/>
					<path d="M113.7-152.2l4.7,2c0,0-104.8,31.6-141.5,117.3C-40.9,8.6,65.2,101.3,45.2,147.7c-27.4,63.9-184.1,86.9-206,138
						c-26.9,62.7,35,133.8,35,133.8l-4.7-2c0,0-61.9-71.1-35-133.7c21.9-51,178.7-74,206.1-138.1C60.6,99.1-45.5,6.4-27.7-35.2
						C9-120.8,113.7-152.2,113.7-152.2z"/>
					<path d="M104.3-156.1l4.7,2c0,0-104.8,31.6-141.5,117.3C-50.3,4.6,55.7,97.3,35.8,143.7c-27.4,63.9-184.1,86.8-206,138
						c-26.9,62.7,35,133.8,35,133.8l-4.7-2c0,0-61.9-71.1-35-133.7C-153,228.6,3.7,205.6,31.2,141.6C51.1,95.1-54.8,2.4-37-39.2
						C-0.4-124.8,104.3-156.1,104.3-156.1z"/>
					<path d="M94.9-160.2l4.7,2c0,0-104.8,31.6-141.5,117.3C-59.7,0.5,46.3,93.2,26.4,139.6c-27.3,63.9-184.1,86.9-206,138
						c-26.9,62.7,35,133.8,35,133.8l-4.7-2c0,0-61.9-71.1-35-133.7c21.9-51,178.6-74,206.1-138.1C41.7,91-64.2-1.7-46.4-43.2
						C-9.8-128.7,94.9-160.2,94.9-160.2z"/>
					<path d="M85.6-164.2l4.7,2c0,0-104.8,31.6-141.5,117.3C-69.1-3.5,36.9,89.2,17.1,135.6c-27.4,63.9-184.2,86.8-206.1,138
						c-26.9,62.7,35,133.8,35,133.8l-4.7-2c0,0-61.9-71.1-35-133.7c21.9-51,178.7-74,206.1-138.1C32.3,87-73.7-5.7-55.8-47.2
						C-19.1-132.8,85.6-164.2,85.6-164.2z"/>
				</g>
				<g>
					<path d="M847,162.9l4.7,2c0,0-104.8,31.6-141.5,117.3c-17.8,41.4,88.3,134.1,68.3,180.5c-27.4,63.9-184.2,86.9-206.1,138
						c-26.9,62.7,35,133.8,35,133.8l-4.7-2c0,0-61.9-71.1-35-133.7c21.9-51,178.7-74,206.1-138.1c19.9-46.5-86-139.3-68.2-180.8
						C742.3,194.3,847,162.9,847,162.9z"/>
					<path d="M837.6,158.8l4.7,2c0,0-104.8,31.6-141.5,117.3c-17.8,41.4,88.3,134.1,68.3,180.5c-27.4,63.9-184.2,86.9-206.1,138
						c-26.9,62.7,35,133.8,35,133.8l-4.7-2c0,0-61.9-71.1-35-133.7c21.9-51,178.7-74,206.1-138.1c19.9-46.5-86-139.3-68.2-180.8
						C732.9,190.3,837.6,158.8,837.6,158.8z"/>
					<path d="M828.2,154.8l4.7,2c0,0-104.8,31.6-141.5,117.3c-17.8,41.4,88.3,134.1,68.3,180.5c-27.4,63.9-184.2,86.9-206.1,138
						c-26.9,62.7,35,133.8,35,133.8l-4.7-2c0,0-61.9-71.1-35-133.7c21.9-51,178.7-74,206.1-138.1c19.9-46.5-86-139.3-68.2-180.8
						C723.4,186.2,828.2,154.8,828.2,154.8z"/>
					<path d="M818.8,150.9l4.7,2c0,0-104.8,31.6-141.5,117.3c-17.8,41.4,88.3,134.1,68.3,180.5c-27.4,63.9-184.2,86.9-206.1,138
						c-26.8,62.6,35.1,133.8,35.1,133.8l-4.7-2c0,0-61.9-71.1-35-133.7c21.9-51,178.7-74,206.1-138.1c19.9-46.5-86-139.3-68.2-180.8
						C714,182.2,818.8,150.9,818.8,150.9z"/>
					<path d="M809.3,146.8l4.7,2c0,0-104.8,31.6-141.5,117.3c-17.8,41.4,88.3,134.1,68.3,180.5c-27.4,63.9-184.2,86.9-206.1,138
						c-26.9,62.7,35,133.8,35,133.8l-4.7-2c0,0-61.9-71.1-35-133.7c21.9-51,178.7-74,206.1-138.1c20-46.5-86-139.2-68.2-180.8
						C704.6,178.3,809.3,146.8,809.3,146.8z"/>
					<path d="M799.9,142.8l4.7,2c0,0-104.8,31.6-141.5,117.3c-17.8,41.4,88.3,134.1,68.3,180.5c-27.4,63.9-184.2,86.9-206.1,138
						c-26.9,62.7,35,133.8,35,133.8l-4.7-2c0,0-61.9-71.1-35-133.7c21.9-51,178.7-74,206.1-138.1c19.9-46.5-86-139.3-68.2-180.8
						C695.2,174.2,799.9,142.8,799.9,142.8z"/>
					<path d="M790.5,138.7l4.7,2c0,0-104.8,31.6-141.5,117.3C635.9,299.4,742,392.1,722,438.5c-27.4,63.9-184.2,86.9-206.1,138
						c-26.9,62.7,35,133.8,35,133.8l-4.7-2c0,0-61.9-71.1-35-133.7c21.9-51,178.7-74,206.1-138.1c19.9-46.5-86-139.3-68.2-180.8
						C685.8,170.2,790.5,138.7,790.5,138.7z"/>
					<path d="M781.2,134.7l4.7,2c0,0-104.8,31.6-141.5,117.3c-17.8,41.4,88.3,134.1,68.3,180.5c-27.4,63.9-184.2,86.9-206.1,138
						c-26.9,62.7,35,133.8,35,133.8l-4.7-2c0,0-61.9-71.1-35-133.7c21.9-51,178.7-74,206.1-138.1c19.9-46.5-86-139.3-68.2-180.8
						C676.4,166.1,781.2,134.7,781.2,134.7z"/>
					<path d="M771.8,130.6l4.7,2c0,0-104.8,31.6-141.5,117.3c-17.8,41.4,88.3,134.1,68.3,180.5c-27.4,63.9-184.2,86.9-206.1,138
						c-26.9,62.7,35,133.9,35,133.9l-4.7-2c0,0-61.9-71.1-35-133.7c21.9-51,178.7-74,206.1-138.1c19.9-46.5-86.1-139.3-68.2-180.8
						C667.1,162.1,771.8,130.6,771.8,130.6z"/>
					<path d="M762.4,126.6l4.7,2c0,0-104.8,31.6-141.5,117.3c-17.8,41.4,88.3,134.1,68.3,180.5c-27.4,63.9-184.2,86.9-206.1,138
						c-26.9,62.7,35,133.8,35,133.8l-4.7-2c0,0-61.9-71.1-35-133.7c21.9-51,178.7-74,206.1-138.1c19.9-46.5-86-139.2-68.2-180.8
						C657.7,158,762.4,126.6,762.4,126.6z"/>
					<path d="M753,122.6l4.7,2c0,0-104.8,31.6-141.5,117.3c-17.8,41.4,88.3,134.1,68.3,180.5c-27.4,63.9-184.2,86.9-206.1,138
						c-26.9,62.7,35,133.8,35,133.8l-4.7-2c0,0-61.9-71.1-35-133.7c21.9-51,178.7-74,206.1-138.1c19.9-46.5-86-139.3-68.2-180.8
						C648.3,154,753,122.6,753,122.6z"/>
					<path d="M743.6,118.5l4.7,2c0,0-104.8,31.6-141.5,117.3C589,279.3,695,372,675.1,418.4c-27.4,63.9-184.2,86.9-206.1,138
						c-26.9,62.7,35,133.8,35,133.8l-4.7-2c0,0-61.9-71.1-35-133.7c21.9-51,178.7-74,206.1-138.1c19.9-46.5-86-139.3-68.2-180.8
						C638.9,150,743.6,118.5,743.6,118.5z"/>
					<path d="M734.2,114.5l4.7,2c0,0-104.8,31.6-141.5,117.3c-17.8,41.4,88.3,134.1,68.3,180.5c-27.4,63.9-184.2,86.9-206.1,138
						c-26.9,62.7,35,133.8,35,133.8l-4.7-2c0,0-61.9-71.1-35-133.7c21.9-51,178.7-74,206.1-138.1c19.9-46.5-86-139.3-68.2-180.8
						C629.5,145.9,734.2,114.5,734.2,114.5z"/>
					<path d="M724.8,110.5l4.7,2c0,0-104.8,31.6-141.5,117.3c-17.8,41.4,88.3,134.1,68.3,180.5c-27.4,63.9-184.2,86.9-206.1,138
						c-26.9,62.7,35,133.8,35,133.8l-4.7-2c0,0-61.9-71.1-35-133.7c21.9-51,178.7-74,206.1-138.1c19.9-46.5-86-139.3-68.2-180.8
						C620.1,142,724.8,110.5,724.8,110.5z"/>
					<path d="M715.4,106.5l4.7,2c0,0-104.8,31.6-141.5,117.3c-17.8,41.4,88.3,134.1,68.3,180.5c-27.4,63.9-184.2,86.9-206.1,138
						c-26.9,62.7,35,133.8,35,133.8l-4.7-2c0,0-61.9-71.1-35-133.7c21.9-51,178.7-74,206.1-138.1c19.9-46.5-86-139.3-68.2-180.8
						C610.6,137.9,715.4,106.5,715.4,106.5z"/>
					<path d="M706,102.5l4.7,2c0,0-104.8,31.6-141.5,117.3c-17.8,41.4,88.3,134.1,68.3,180.5c-27.4,63.9-184.2,86.9-206.1,138
						c-26.9,62.7,35,133.8,35,133.8l-4.7-2c0,0-61.9-71.1-35-133.7c21.9-51,178.7-74,206.1-138.1c19.9-46.5-86-139.3-68.2-180.8
						C601.2,133.9,706,102.5,706,102.5z"/>
					<path stroke="#000000" stroke-width="1.0567" stroke-miterlimit="10" d="M696.5,98.4l4.7,2c0,0-104.8,31.6-141.5,117.3
						C541.9,259.2,648,351.8,628,398.2c-27.4,63.9-184.2,86.9-206.1,138c-26.9,62.7,35,133.8,35,133.8l-4.7-2
						c0,0-61.9-71.1-35-133.7c21.9-51,178.7-74,206.1-138.1c19.9-46.5-86-139.3-68.2-180.8C591.8,129.9,696.5,98.4,696.5,98.4z"/>
					<path d="M1457.9,424.9l4.7,2c0,0-104.8,31.6-141.5,117.3c-17.8,41.4,88.3,134.1,68.3,180.5c-27.4,63.9-184.2,86.9-206.1,138
						c-26.9,62.7,35,133.8,35,133.8l-4.7-2c0,0-61.9-71.1-35-133.7c21.9-51,178.7-74,206.1-138.1c19.9-46.5-86-139.3-68.2-180.8
						C1353.2,456.3,1457.9,424.9,1457.9,424.9z"/>
					<path d="M1448.5,420.8l4.7,2c0,0-104.8,31.6-141.5,117.3c-17.8,41.4,88.3,134.1,68.3,180.5c-27.4,63.9-184.2,86.9-206.1,138
						c-26.9,62.7,35,133.8,35,133.8l-4.7-2c0,0-61.9-71.1-35-133.7c21.9-51,178.7-74,206.1-138.1c19.9-46.5-86-139.3-68.2-180.8
						C1343.8,452.3,1448.5,420.8,1448.5,420.8z"/>
					<path d="M1439.1,416.8l4.7,2c0,0-104.8,31.6-141.5,117.3c-17.8,41.4,88.3,134.1,68.3,180.5c-27.4,63.9-184.2,86.9-206.1,138
						c-26.9,62.7,35,133.8,35,133.8l-4.7-2c0,0-61.9-71.1-35-133.7c21.9-51,178.7-74,206.1-138.1c19.9-46.5-86-139.3-68.2-180.8
						C1334.4,448.2,1439.1,416.8,1439.1,416.8z"/>
					<path d="M1429.7,412.8l4.7,2c0,0-104.8,31.6-141.5,117.3c-17.8,41.4,88.3,134.1,68.3,180.5c-27.4,63.9-184.2,86.9-206.1,138
						c-26.9,62.7,35,133.8,35,133.8l-4.7-2c0,0-61.9-71.1-35-133.7c21.9-51,178.7-74,206.1-138.1c19.9-46.5-86-139.3-68.2-180.8
						C1325,444.3,1429.7,412.8,1429.7,412.8z"/>
					<path d="M1420.3,408.8l4.7,2c0,0-104.8,31.6-141.5,117.3c-17.8,41.4,88.3,134.1,68.3,180.5c-27.4,63.9-184.2,86.9-206.1,138
						c-26.9,62.7,35,133.8,35,133.8l-4.7-2c0,0-61.9-71.1-35-133.7c21.9-51,178.7-74,206.1-138.1c19.9-46.5-86-139.3-68.2-180.8
						C1315.6,440.2,1420.3,408.8,1420.3,408.8z"/>
					<path d="M1410.9,404.8l4.7,2c0,0-104.8,31.6-141.5,117.3c-17.8,41.4,88.3,134.1,68.3,180.5c-27.4,63.9-184.2,86.9-206.1,138
						c-26.9,62.7,35,133.8,35,133.8l-4.7-2c0,0-61.9-71.1-35-133.7c21.9-51,178.7-74,206.1-138.1c19.9-46.5-86-139.3-68.2-180.8
						C1306.2,436.2,1410.9,404.8,1410.9,404.8z"/>
					<path d="M1401.5,400.7l4.7,2c0,0-104.8,31.6-141.5,117.3c-17.8,41.4,88.3,134.1,68.3,180.5c-27.4,63.9-184.2,86.9-206.1,138
						c-26.9,62.7,35,133.8,35,133.8l-4.7-2c0,0-61.9-71.1-35-133.7c21.9-51,178.7-74,206.1-138.1c19.9-46.5-86-139.3-68.2-180.8
						C1296.7,432.2,1401.5,400.7,1401.5,400.7z"/>
					<path d="M1392.1,396.7l4.7,2c0,0-104.8,31.6-141.5,117.3c-17.8,41.4,88.3,134.1,68.3,180.5c-27.4,63.9-184.2,86.9-206.1,138
						c-26.9,62.7,35,133.8,35,133.8l-4.7-2c0,0-61.9-71.1-35-133.7c21.9-51,178.7-74,206.1-138.1c19.9-46.5-86-139.3-68.2-180.8
						C1287.3,428.1,1392.1,396.7,1392.1,396.7z"/>
					<path d="M1382.6,392.6l4.7,2c0,0-104.8,31.6-141.5,117.3c-17.8,41.4,88.3,134.1,68.3,180.5c-27.4,63.9-184.2,86.9-206.1,138
						c-26.9,62.7,35,133.8,35,133.8l-4.7-2c0,0-61.9-71.1-35-133.7c21.9-51,178.7-74,206.1-138.1c19.9-46.5-86-139.3-68.2-180.8
						C1277.9,424.1,1382.6,392.6,1382.6,392.6z"/>
					<path d="M1373.3,388.6l4.7,2c0,0-104.8,31.6-141.5,117.3c-17.8,41.4,88.3,134.1,68.3,180.5c-27.4,63.9-184.2,86.9-206.1,138
						c-26.9,62.7,35,133.8,35,133.8l-4.7-2c0,0-61.9-71.1-35-133.7c21.9-51,178.7-74,206.1-138.1c19.9-46.5-86-139.3-68.2-180.8
						C1268.5,420,1373.3,388.6,1373.3,388.6z"/>
					<path d="M1363.9,384.6l4.7,2c0,0-104.8,31.6-141.5,117.3c-17.8,41.4,88.3,134.1,68.3,180.5c-27.4,63.9-184.2,86.9-206.1,138
						c-26.9,62.7,35,133.8,35,133.8l-4.7-2c0,0-61.9-71.1-35-133.7c21.9-51,178.7-74,206.1-138.1c19.9-46.5-86-139.3-68.2-180.8
						C1259.2,416,1363.9,384.6,1363.9,384.6z"/>
					<path d="M1354.5,380.5l4.7,2c0,0-104.8,31.6-141.5,117.3c-17.8,41.4,88.3,134.1,68.3,180.5c-27.4,63.9-184.2,86.9-206.1,138
						c-26.9,62.7,35,133.8,35,133.8l-4.7-2c0,0-61.9-71.1-35-133.7c21.9-51,178.7-74,206.1-138.1c19.9-46.5-86-139.3-68.2-180.8
						C1249.8,412,1354.5,380.5,1354.5,380.5z"/>
					<path d="M1345.1,376.6l4.7,2c0,0-104.8,31.6-141.5,117.3c-17.8,41.4,88.3,134.1,68.3,180.5c-27.4,63.9-184.2,86.9-206.1,138
						c-26.9,62.7,35,133.8,35,133.8l-4.7-2c0,0-61.9-71.1-35-133.7c21.9-51,178.7-74,206.1-138.1c19.9-46.5-86-139.3-68.2-180.8
						C1240.4,407.9,1345.1,376.6,1345.1,376.6z"/>
					<path d="M1335.7,372.5l4.7,2c0,0-104.8,31.6-141.5,117.3c-17.8,41.4,88.3,134.1,68.3,180.5c-27.4,63.9-184.2,86.9-206.1,138
						c-26.9,62.7,35,133.8,35,133.8l-4.7-2c0,0-61.9-71.1-35-133.7c21.9-51,178.7-74,206.1-138.1c19.9-46.5-86-139.3-68.2-180.8
						C1231,404,1335.7,372.5,1335.7,372.5z"/>
					<path d="M1326.3,368.5l4.7,2c0,0-104.8,31.6-141.5,117.3c-17.8,41.4,88.3,134.1,68.3,180.5c-27.4,63.9-184.2,86.9-206.1,138
						c-26.9,62.7,35,133.8,35,133.8l-4.7-2c0,0-61.9-71.1-35-133.7c21.9-51,178.7-74,206.1-138.1c19.9-46.5-86-139.3-68.2-180.8
						C1221.6,399.9,1326.3,368.5,1326.3,368.5z"/>
					<path d="M1316.9,364.4l4.7,2c0,0-104.8,31.6-141.5,117.3c-17.8,41.4,88.3,134.1,68.3,180.5c-27.4,63.9-184.2,86.9-206.1,138
						c-26.9,62.7,35,133.8,35,133.8l-4.7-2c0,0-61.9-71.1-35-133.7c21.9-51,178.7-74,206.1-138.1c19.9-46.5-86-139.3-68.2-180.8
						C1212.2,395.9,1316.9,364.4,1316.9,364.4z"/>
					<path d="M1307.5,360.4l4.7,2c0,0-104.8,31.6-141.5,117.3c-17.8,41.4,88.3,134.1,68.3,180.5c-27.4,63.9-184.2,86.9-206.1,138
						c-26.9,62.7,35,133.8,35,133.8l-4.7-2c0,0-61.9-71.1-35-133.7c21.9-51,178.7-74,206.1-138.1c19.9-46.5-86-139.3-68.2-180.8
						C1202.8,391.8,1307.5,360.4,1307.5,360.4z"/>
					<path d="M1326.3,368.5l4.7,2c0,0-104.8,31.6-141.5,117.3c-17.8,41.4,88.3,134.1,68.3,180.5c-27.4,63.9-184.2,86.9-206.1,138
						c-26.9,62.7,35,133.8,35,133.8l-4.7-2c0,0-61.9-71.1-35-133.7c21.9-51,178.7-74,206.1-138.1c19.9-46.5-86-139.3-68.2-180.8
						C1221.6,399.9,1326.3,368.5,1326.3,368.5z"/>
					<path d="M1316.9,364.4l4.7,2c0,0-104.8,31.6-141.5,117.3c-17.8,41.4,88.3,134.1,68.3,180.5c-27.4,63.9-184.2,86.9-206.1,138
						c-26.9,62.7,35,133.8,35,133.8l-4.7-2c0,0-61.9-71.1-35-133.7c21.9-51,178.7-74,206.1-138.1c19.9-46.5-86-139.3-68.2-180.8
						C1212.2,395.9,1316.9,364.4,1316.9,364.4z"/>
					<path d="M1307.5,360.4l4.7,2c0,0-104.8,31.6-141.5,117.3c-17.8,41.4,88.3,134.1,68.3,180.5c-27.4,63.9-184.2,86.9-206.1,138
						c-26.9,62.7,35,133.8,35,133.8l-4.7-2c0,0-61.9-71.1-35-133.7c21.9-51,178.7-74,206.1-138.1c19.9-46.5-86-139.3-68.2-180.8
						C1202.8,391.8,1307.5,360.4,1307.5,360.4z"/>
					<path d="M1298.1,356.4l4.7,2c0,0-104.8,31.6-141.5,117.3c-17.8,41.4,88.3,134.1,68.3,180.5c-27.4,63.9-184.2,86.9-206.1,138
						c-26.9,62.7,35,133.8,35,133.8l-4.7-2c0,0-61.9-71.1-35-133.7c21.9-51,178.7-74,206.1-138.1c19.9-46.5-86-139.3-68.2-180.8
						C1193.4,387.8,1298.1,356.4,1298.1,356.4z"/>
					<path d="M1288.7,352.3l4.7,2c0,0-104.8,31.6-141.5,117.3c-17.8,41.4,88.3,134.1,68.3,180.5c-27.4,63.9-184.2,86.9-206.1,138
						c-26.9,62.7,35,133.8,35,133.8l-4.7-2c0,0-61.9-71.1-35-133.7c21.9-51,178.7-74,206.1-138.1c19.9-46.5-86-139.3-68.2-180.8
						C1183.9,383.8,1288.7,352.3,1288.7,352.3z"/>
					<path d="M1279.3,348.3l4.7,2c0,0-104.8,31.6-141.5,117.3c-17.8,41.4,88.3,134.1,68.3,180.5c-27.4,63.9-184.2,86.9-206.1,138
						c-26.9,62.7,35,133.8,35,133.8l-4.7-2c0,0-61.9-71.1-35-133.7c21.9-51,178.7-74,206.1-138.1c19.9-46.5-86-139.3-68.2-180.8
						C1174.5,379.7,1279.3,348.3,1279.3,348.3z"/>
					<path d="M1269.9,344.2l4.7,2c0,0-104.8,31.6-141.5,117.3c-17.8,41.4,88.3,134.1,68.3,180.5c-27.4,64-184.1,87-206,138
						c-26.9,62.7,35,133.8,35,133.8l-4.7-2c0,0-61.9-71.1-35-133.7c21.9-51,178.7-74,206.1-138.1c19.9-46.5-86-139.3-68.2-180.8
						C1165.2,375.7,1269.9,344.2,1269.9,344.2z"/>
					<path d="M1260.5,340.2l4.7,2c0,0-104.8,31.6-141.5,117.3c-17.8,41.4,88.3,134.1,68.3,180.5c-27.4,64-184.2,87-206,138
						c-26.9,62.7,35,133.8,35,133.8l-4.7-2c0,0-61.9-71.1-35-133.7c21.9-51,178.7-74,206.1-138.1c19.9-46.5-86-139.3-68.2-180.8
						C1155.8,371.6,1260.5,340.2,1260.5,340.2z"/>
					<path d="M1251.1,336.3l4.7,2c0,0-104.8,31.6-141.5,117.3c-17.8,41.4,88.3,134.1,68.3,180.5c-27.4,63.9-184.2,86.9-206.1,138
						c-26.9,62.7,35,133.8,35,133.8l-4.7-2c0,0-61.9-71.1-35-133.7c21.9-51,178.7-74,206.1-138.1c19.9-46.5-86-139.3-68.2-180.8
						C1146.4,367.7,1251.1,336.3,1251.1,336.3z"/>
					<path d="M1241.7,332.2l4.7,2c0,0-104.8,31.6-141.5,117.3c-17.8,41.4,88.3,134.1,68.3,180.5c-27.4,63.9-184.2,86.9-206.1,138
						c-26.9,62.7,35,133.8,35,133.8l-4.7-2c0,0-61.9-71.1-35-133.7c21.9-51,178.7-74,206.1-138.1c19.9-46.5-86-139.3-68.2-180.8
						C1137,363.7,1241.7,332.2,1241.7,332.2z"/>
					<path d="M1232.3,328.2l4.7,2c0,0-104.8,31.6-141.5,117.3c-17.8,41.4,88.3,134.1,68.3,180.5c-27.4,63.9-184.2,86.9-206.1,138
						c-26.9,62.7,35,133.8,35,133.8l-4.7-2c0,0-61.9-71.1-35-133.7c21.9-51,178.7-74,206.1-138.1c19.9-46.5-86-139.3-68.2-180.8
						C1127.6,359.6,1232.3,328.2,1232.3,328.2z"/>
					<path d="M1222.9,324.1l4.7,2c0,0-104.8,31.6-141.5,117.3c-17.8,41.4,88.3,134.1,68.3,180.5c-27.4,63.9-184.2,86.9-206.1,138
						c-26.9,62.7,35,133.8,35,133.8l-4.7-2c0,0-61.9-71.1-35-133.7c21.9-51,178.7-74,206.1-138.1c19.9-46.5-86-139.3-68.2-180.8
						C1118.2,355.6,1222.9,324.1,1222.9,324.1z"/>
					<path d="M1213.5,320.1l4.7,2c0,0-104.8,31.6-141.5,117.3c-17.8,41.4,88.3,134.1,68.3,180.5c-27.4,63.9-184.2,86.9-206.1,138
						C912.1,820.6,974,891.7,974,891.7l-4.7-2c0,0-61.9-71.1-35-133.7c21.9-51,178.7-74,206.1-138.1c19.9-46.5-86-139.3-68.2-180.8
						C1108.8,351.5,1213.5,320.1,1213.5,320.1z"/>
					<path d="M1204.1,316.1l4.7,2c0,0-104.8,31.6-141.5,117.3c-17.8,41.4,88.3,134.1,68.3,180.5c-27.4,63.9-184.2,86.9-206.1,138
						c-26.9,62.7,35,133.8,35,133.8l-4.7-2c0,0-61.9-71.1-35-133.7c21.9-51,178.7-74,206.1-138.1c19.9-46.5-86-139.3-68.2-180.8
						C1099.4,347.5,1204.1,316.1,1204.1,316.1z"/>
					<path d="M1194.7,312l4.7,2c0,0-104.8,31.6-141.5,117.3c-17.8,41.4,88.3,134.1,68.3,180.5c-27.4,63.9-184.2,86.9-206.1,138
						c-26.9,62.7,35,133.8,35,133.8l-4.7-2c0,0-61.9-71.1-35-133.7c21.9-51,178.7-74,206.1-138.1c19.9-46.5-86-139.3-68.2-180.8
						C1090,343.4,1194.7,312,1194.7,312z"/>
					<path d="M1185.3,308l4.7,2c0,0-104.8,31.6-141.5,117.3c-17.8,41.4,88.3,134.1,68.3,180.5c-27.4,63.9-184.2,86.9-206.1,138
						c-26.9,62.7,35,133.8,35,133.8l-4.7-2c0,0-61.9-71.1-35-133.7c21.9-51,178.7-74,206.1-138.1c19.9-46.5-86-139.3-68.2-180.8
						C1080.6,339.4,1185.3,308,1185.3,308z"/>
					<path d="M1176,303.9l4.7,2c0,0-104.8,31.6-141.5,117.3c-17.8,41.4,88.3,134.1,68.3,180.5c-27.4,63.9-184.2,86.9-206.1,138
						c-26.9,62.7,35,133.8,35,133.8l-4.7-2c0,0-61.9-71.1-35-133.7c21.9-51,178.7-74,206.1-138.1c19.9-46.5-86-139.3-68.2-180.8
						C1071.1,335.4,1176,303.9,1176,303.9z"/>
					<path d="M1166.6,300l4.7,2c0,0-104.8,31.6-141.5,117.3c-17.8,41.4,88.3,134.1,68.3,180.5c-27.4,63.9-184.2,86.9-206.1,138
						c-26.9,62.7,35,133.8,35,133.8l-4.7-2c0,0-61.9-71.1-35-133.7c21.9-51,178.7-74,206.1-138.1c19.9-46.5-86-139.3-68.2-180.8
						C1061.8,331.4,1166.6,300,1166.6,300z"/>
					<path d="M1157.2,295.9l4.7,2c0,0-104.8,31.6-141.5,117.3c-17.8,41.4,88.3,134.1,68.3,180.5c-27.4,63.9-184.2,86.9-206.1,138
						c-26.9,62.7,35,133.8,35,133.8l-4.7-2c0,0-61.9-71.1-35-133.7c21.9-51,178.7-74,206.1-138.1c19.9-46.5-86-139.3-68.2-180.8
						C1052.4,327.4,1157.2,295.9,1157.2,295.9z"/>
					<path d="M1147.7,291.9l4.7,2c0,0-104.8,31.6-141.5,117.3c-17.8,41.4,88.3,134.1,68.3,180.5c-27.4,63.9-184.2,86.9-206.1,138
						c-26.9,62.7,35,133.8,35,133.8l-4.7-2c0,0-61.9-71.1-35-133.7c21.9-51,178.7-74,206.1-138.1c19.9-46.5-86-139.3-68.2-180.8
						C1043,323.3,1147.7,291.9,1147.7,291.9z"/>
					<path d="M1138.3,287.9l4.7,2c0,0-104.8,31.6-141.5,117.3c-17.8,41.4,88.3,134.1,68.3,180.5c-27.4,63.9-184.2,86.9-206.1,138
						c-26.9,62.7,35,133.8,35,133.8l-4.7-2c0,0-61.9-71.1-35-133.7c21.9-51,178.7-74,206.1-138.1c19.9-46.5-86-139.3-68.2-180.8
						C1033.6,319.3,1138.3,287.9,1138.3,287.9z"/>
					<path d="M1128.9,283.8l4.7,2c0,0-104.8,31.6-141.5,117.3c-17.8,41.4,88.3,134.1,68.3,180.5c-27.4,63.9-184.2,86.9-206.1,138
						c-26.9,62.7,35,133.8,35,133.8l-4.7-2c0,0-61.9-71.1-35-133.7c21.9-51,178.7-74,206.1-138.1c19.9-46.5-86-139.3-68.2-180.8
						C1024.2,315.3,1128.9,283.8,1128.9,283.8z"/>
					<path d="M1119.5,279.8l4.7,2c0,0-104.8,31.6-141.5,117.3c-17.8,41.4,88.3,134.1,68.3,180.5c-27.4,63.9-184.2,86.9-206.1,138
						c-26.9,62.7,35,133.8,35,133.8l-4.7-2c0,0-61.9-71.1-35-133.7c21.9-51,178.7-74,206.1-138.1c19.9-46.5-86-139.3-68.2-180.8
						C1014.8,311.2,1119.5,279.8,1119.5,279.8z"/>
					<path d="M1110.1,275.7l4.7,2c0,0-104.8,31.6-141.5,117.3c-17.8,41.4,88.3,134.1,68.3,180.5c-27.4,63.9-184.2,86.9-206.1,138
						c-26.9,62.7,35,133.8,35,133.8l-4.7-2c0,0-61.9-71.1-35-133.7c21.9-51,178.7-74,206.1-138.1c19.9-46.5-86-139.3-68.2-180.8
						C1005.4,307.2,1110.1,275.7,1110.1,275.7z"/>
					<path d="M1100.7,271.7l4.7,2c0,0-104.8,31.6-141.5,117.3c-17.8,41.4,88.3,134.1,68.3,180.5c-27.4,63.9-184.2,86.9-206.1,138
						c-26.9,62.7,35,133.8,35,133.8l-4.7-2c0,0-61.9-71.1-35-133.7c21.9-51,178.7-74,206.1-138.1c19.9-46.5-86-139.3-68.2-180.8
						C996,303.1,1100.7,271.7,1100.7,271.7z"/>
					<path d="M1091.3,267.7l4.7,2c0,0-104.8,31.6-141.5,117.3c-17.8,41.4,88.3,134.1,68.3,180.5c-27.4,63.9-184.2,86.9-206.1,138
						c-26.8,62.7,35.1,133.8,35.1,133.8l-4.7-2c0,0-61.9-71.1-35-133.7c21.9-51,178.7-74,206.1-138.1c19.9-46.5-86-139.3-68.2-180.8
						C986.6,299.1,1091.3,267.7,1091.3,267.7z"/>
					<path d="M1081.9,263.7l4.7,2c0,0-104.8,31.6-141.5,117.3c-17.8,41.4,88.3,134.1,68.3,180.5c-27.4,63.9-184.2,86.9-206.1,138
						c-26.9,62.7,35,133.8,35,133.8l-4.7-2c0,0-61.9-71.1-35-133.7c21.9-51,178.7-74,206.1-138.1c19.9-46.5-86-139.3-68.2-180.8
						C977.2,295.1,1081.9,263.7,1081.9,263.7z"/>
					<path d="M1072.6,259.7l4.7,2c0,0-104.8,31.6-141.5,117.3c-17.8,41.4,88.3,134.1,68.3,180.5c-27.4,63.9-184.2,86.9-206.1,138
						c-26.9,62.7,35,133.8,35,133.8l-4.7-2c0,0-61.9-71.1-35-133.7c21.9-51,178.7-74,206.1-138.1c19.9-46.5-86-139.3-68.2-180.8
						C967.9,291.1,1072.6,259.7,1072.6,259.7z"/>
					<path d="M1063.2,255.6l4.7,2c0,0-104.8,31.6-141.5,117.3c-17.8,41.4,88.3,134.1,68.3,180.5c-27.4,63.9-184.2,86.9-206.1,138
						c-26.9,62.7,35,133.8,35,133.8l-4.7-2c0,0-61.9-71.1-35-133.7c21.9-51,178.7-74,206.1-138.1c19.9-46.5-86-139.3-68.2-180.8
						C958.4,287.1,1063.2,255.6,1063.2,255.6z"/>
					<path d="M1053.8,251.6l4.7,2c0,0-104.8,31.6-141.5,117.3c-17.8,41.4,88.3,134.1,68.3,180.5c-27.4,63.9-184.2,86.9-206.1,138
						c-26.9,62.7,35,133.8,35,133.8l-4.7-2c0,0-61.9-71.1-35-133.7c21.9-51,178.7-74,206.1-138.1c19.9-46.5-86-139.3-68.2-180.8
						C949,283,1053.8,251.6,1053.8,251.6z"/>
					<path d="M1044.4,247.5l4.7,2c0,0-104.8,31.6-141.5,117.3c-17.8,41.4,88.3,134.1,68.3,180.5c-27.4,63.9-184.2,86.9-206.1,138
						c-26.9,62.7,35,133.8,35,133.8l-4.7-2c0,0-61.9-71.1-35-133.7c21.9-51,178.7-74,206.1-138.1c19.9-46.5-86-139.3-68.2-180.8
						C939.6,279,1044.4,247.5,1044.4,247.5z"/>
					<path d="M1034.9,243.5l4.7,2c0,0-104.8,31.6-141.5,117.3c-17.8,41.4,88.3,134.1,68.3,180.5c-27.4,63.9-184.2,86.9-206.1,138
						c-26.9,62.7,35,133.8,35,133.8l-4.7-2c0,0-61.9-71.1-35-133.7c21.9-51,178.7-74,206.1-138.1c19.9-46.5-86-139.3-68.2-180.8
						C930.2,274.9,1034.9,243.5,1034.9,243.5z"/>
					<path d="M1025.5,239.5l4.7,2c0,0-104.8,31.6-141.5,117.3C870.9,400.3,977,492.9,957,539.4c-27.4,63.9-184.2,86.9-206.1,138
						c-26.9,62.7,35,133.8,35,133.8l-4.7-2c0,0-61.9-71.1-35-133.7c21.9-51,178.7-74,206.1-138.1c19.9-46.5-86-139.3-68.2-180.8
						C920.8,270.9,1025.5,239.5,1025.5,239.5z"/>
					<path d="M1016.1,235.4l4.7,2c0,0-104.8,31.6-141.5,117.3c-17.8,41.4,88.3,134.1,68.3,180.5c-27.4,63.9-184.2,86.9-206.1,138
						C714.7,735.9,776.6,807,776.6,807l-4.7-2c0,0-61.9-71.1-35-133.7c21.9-51,178.7-74,206.1-138.1c19.9-46.5-86-139.3-68.2-180.8
						C911.4,266.9,1016.1,235.4,1016.1,235.4z"/>
					<path d="M1006.7,231.4l4.7,2c0,0-104.8,31.6-141.5,117.3c-17.8,41.4,88.3,134.1,68.3,180.5c-27.4,63.9-184.2,86.9-206.1,138
						C705.3,731.9,767.2,803,767.2,803l-4.7-2c0,0-61.9-71.1-35-133.7c21.9-51,178.7-74,206.1-138.1c19.9-46.5-86-139.3-68.2-180.8
						C902,262.8,1006.7,231.4,1006.7,231.4z"/>
					<path d="M997.3,227.3l4.7,2c0,0-104.8,31.6-141.5,117.3c-17.8,41.4,88.3,134.1,68.3,180.5c-27.4,63.9-184.2,86.9-206.1,138
						c-26.9,62.7,35,133.8,35,133.8l-4.7-2c0,0-61.9-71.1-35-133.7c21.9-51,178.7-74,206.1-138.1c19.9-46.5-86-139.3-68.2-180.8
						C892.6,258.8,997.3,227.3,997.3,227.3z"/>
					<path d="M987.9,223.4l4.7,2c0,0-104.8,31.6-141.5,117.3c-17.8,41.4,88.3,134.1,68.3,180.5c-27.4,63.9-184.2,86.9-206.1,138
						c-26.9,62.7,35,133.8,35,133.8l-4.7-2c0,0-61.9-71.1-35-133.7c21.9-51,178.7-74,206.1-138.1c19.9-46.5-86-139.3-68.2-180.8
						C883.2,254.8,987.9,223.4,987.9,223.4z"/>
					<path d="M978.6,219.4l4.7,2c0,0-104.8,31.6-141.5,117.3C824,380.1,930,472.8,910.1,519.2c-27.4,63.9-184.2,86.9-206.1,138
						C677.1,719.9,739,791,739,791l-4.7-2c0,0-61.9-71.1-35-133.7c21.9-51,178.7-74,206.1-138.1c19.9-46.5-86-139.3-68.2-180.8
						C873.8,250.8,978.6,219.4,978.6,219.4z"/>
					<path d="M969.2,215.3l4.7,2c0,0-104.8,31.6-141.5,117.3c-17.8,41.4,88.3,134.1,68.3,180.5c-27.4,63.9-184.2,86.9-206.1,138
						c-26.9,62.7,35,133.8,35,133.8l-4.7-2c0,0-61.9-71.1-35-133.7c21.9-51,178.7-74,206.1-138.1c19.9-46.5-86-139.3-68.2-180.8
						C864.5,246.8,969.2,215.3,969.2,215.3z"/>
					<path d="M959.8,211.3l4.7,2c0,0-104.8,31.6-141.5,117.3c-17.8,41.4,88.3,134.1,68.3,180.5c-27.4,63.9-184.2,86.9-206.1,138
						c-26.9,62.7,35,133.8,35,133.8l-4.7-2c0,0-61.9-71.1-35-133.7c21.9-51,178.7-74,206.1-138.1c19.9-46.5-86-139.3-68.2-180.8
						C855.1,242.7,959.8,211.3,959.8,211.3z"/>
					<path d="M950.4,207.2l4.7,2c0,0-104.8,31.6-141.5,117.3C795.7,368,901.8,460.6,881.9,507c-27.5,64-184.2,87-206.1,138
						c-26.9,62.7,35,133.8,35,133.8l-4.7-2c0,0-61.9-71.1-35-133.7C693,592,849.7,569,877.1,505c19.9-46.5-86-139.3-68.2-180.8
						C845.6,238.7,950.4,207.2,950.4,207.2z"/>
					<path d="M941,203.2l4.7,2c0,0-104.8,31.6-141.5,117.3c-17.8,41.4,88.3,134.1,68.3,180.5c-27.5,64-184.2,87-206.1,138
						c-26.9,62.7,35,133.8,35,133.8l-4.7-2c0,0-61.9-71.1-35-133.7c21.9-51,178.7-74,206.1-138.1c19.9-46.5-86-139.3-68.2-180.8
						C836.2,234.6,941,203.2,941,203.2z"/>
					<path d="M931.6,199.1l4.7,2c0,0-104.8,31.6-141.5,117.3C776.9,359.9,883,452.5,863,499c-27.4,63.9-184.2,86.9-206.1,138
						c-26.9,62.7,35,133.8,35,133.8l-4.7-2c0,0-61.9-71.1-35-133.7c21.9-51,178.7-74,206.1-138.1c19.9-46.5-86-139.3-68.2-180.8
						C826.8,230.6,931.6,199.1,931.6,199.1z"/>
					<path d="M922.1,195.1l4.7,2c0,0-104.8,31.6-141.5,117.3c-17.8,41.4,88.3,134.1,68.3,180.5c-27.4,63.9-184.2,86.9-206.1,138
						c-26.9,62.7,35,133.8,35,133.8l-4.7-2c0,0-61.9-71.1-35-133.7c21.9-51,178.7-74,206.1-138.1c19.9-46.5-86-139.3-68.2-180.8
						C817.4,226.5,922.1,195.1,922.1,195.1z"/>
					<path d="M912.7,191.1l4.7,2c0,0-104.8,31.6-141.5,117.3c-17.8,41.4,88.3,134.1,68.3,180.5c-27.4,63.9-184.2,86.9-206.1,138
						c-26.9,62.7,35,133.8,35,133.8l-4.7-2c0,0-61.9-71.1-35-133.7c21.9-51,178.7-74,206.1-138.1c19.9-46.5-86-139.3-68.2-180.8
						C808,222.5,912.7,191.1,912.7,191.1z"/>
					<path d="M903.3,187.1l4.7,2c0,0-104.8,31.6-141.5,117.3c-17.8,41.4,88.3,134.1,68.3,180.5c-27.4,63.9-184.2,86.9-206.1,138
						c-26.9,62.7,35,133.8,35,133.8l-4.7-2c0,0-61.9-71.1-35-133.7c21.9-51,178.7-74,206.1-138.1c19.9-46.5-86-139.3-68.2-180.8
						C798.6,218.6,903.3,187.1,903.3,187.1z"/>
					<path d="M893.9,183.1l4.7,2c0,0-104.8,31.6-141.5,117.3c-17.8,41.4,88.3,134.1,68.4,180.5c-27.4,63.9-184.2,86.9-206.1,138
						c-26.9,62.7,35,133.8,35,133.8l-4.7-2c0,0-61.9-71.1-35-133.7c21.9-51,178.7-74,206.1-138.1c19.9-46.5-86-139.3-68.2-180.8
						C789.2,214.5,893.9,183.1,893.9,183.1z"/>
					<path d="M884.5,179l4.7,2c0,0-104.8,31.6-141.5,117.3c-17.8,41.5,88.3,134.2,68.4,180.5c-27.4,63.9-184.2,86.9-206.1,138
						c-26.9,62.7,35,133.8,35,133.8l-4.7-2c0,0-61.9-71.1-35-133.7c21.9-51,178.7-74,206.1-138.1c19.9-46.5-86-139.3-68.2-180.8
						C779.8,210.5,884.5,179,884.5,179z"/>
					<path d="M875.2,175l4.7,2c0,0-104.8,31.6-141.5,117.3c-17.8,41.4,88.3,134.1,68.3,180.5c-27.4,63.9-184.2,86.9-206.1,138
						c-26.9,62.7,35,133.8,35,133.8l-4.7-2c0,0-61.9-71.1-35-133.7c21.9-51,178.7-74,206.1-138.1c19.9-46.5-86-139.3-68.2-180.8
						C770.5,206.4,875.2,175,875.2,175z"/>
					<path d="M865.8,171l4.7,2c0,0-104.8,31.6-141.5,117.3c-17.8,41.4,88.3,134.1,68.3,180.5c-27.4,63.9-184.2,86.9-206.1,138
						c-26.9,62.7,35,133.8,35,133.8l-4.7-2c0,0-61.9-71.1-35-133.7c21.9-51,178.7-74,206.1-138.1c19.9-46.5-86-139.3-68.2-180.8
						C761.1,202.4,865.8,171,865.8,171z"/>
					<path d="M856.4,166.9l4.7,2c0,0-104.8,31.6-141.5,117.3c-17.8,41.4,88.3,134.1,68.3,180.5c-27.4,63.9-184.2,86.9-206.1,138
						c-26.9,62.7,35,133.8,35,133.8l-4.7-2c0,0-61.9-71.1-35-133.7c21.9-51,178.7-74,206.1-138.1c19.9-46.5-86-139.3-68.2-180.8
						C751.7,198.4,856.4,166.9,856.4,166.9z"/>
				</g>
			</g>
		</g>
	</g>
</g>
</svg>
