<svg id="Layer_1" xmlns="http://www.w3.org/2000/svg" xmlns:xlink="http://www.w3.org/1999/xlink" viewBox="-292 233.6 374.2 95.4"><style>.st0{clip-path:url(#SVGID_2_);} .st1{stroke:#000000;stroke-width:1.0567;stroke-miterlimit:10;}</style><defs><path id="SVGID_1_" d="M-274.6 293v31.3h-14.9v-77h28.9c5 0 9 .6 12.2 1.8 3.1 1.2 5.7 2.9 7.9 5.2 1.9 2 3.4 4.4 4.5 7.2s1.6 5.7 1.6 8.8-.5 6-1.6 8.8c-1.1 2.8-2.5 5.2-4.5 7.1-2.1 2.2-4.7 3.9-7.9 5.1-3.1 1.2-7.2 1.8-12.2 1.8h-14zm13.4-13.2c2.6 0 4.5-.3 5.9-.8 1.4-.5 2.5-1.3 3.4-2.3 1.7-1.8 2.5-4 2.5-6.5 0-2.6-.8-4.8-2.5-6.6-.9-1-2-1.7-3.4-2.3-1.4-.6-3.4-.8-5.9-.8h-13.4v19.2h13.4zm61 44.5l33-77h10.5l33 77h-15.5l-7.3-17h-30.9l-7.3 17h-15.5zm28.4-30.2h19.6l-9.8-22.8-9.8 22.8zm103.1 9.7c2.2 2.4 4.9 4.4 8.1 6.1 3.2 1.6 6.5 2.4 10.1 2.4 3.3 0 6-.9 8.1-2.8 2.1-1.8 3.1-4.1 3.1-6.9 0-2.5-.8-4.5-2.4-6-1.6-1.5-3.6-2.8-6-4-2.4-1.2-5.1-2.3-8-3.3-2.9-1-5.6-2.3-8.2-3.9-3-1.8-5.6-4-7.7-6.8-2.1-2.8-3.2-6.3-3.2-10.7 0-3.4.7-6.5 2.2-9.2 1.5-2.7 3.4-5 5.7-6.8 2.3-1.9 5-3.3 8.1-4.2 3-1 6.2-1.4 9.4-1.4 4 0 7.8.5 11.4 1.6 3.6 1.1 7.3 3 10.9 5.7l-7.7 11c-1.5-1.5-3.5-2.7-5.9-3.6-2.4-1-4.9-1.4-7.4-1.4-1.4 0-2.8.2-4.2.5-1.4.3-2.7.8-3.9 1.5-1.1.7-2.1 1.5-2.8 2.6-.7 1.1-1 2.3-1 3.8 0 2.1.9 3.7 2.6 5.1 1.8 1.3 4 2.5 6.6 3.6 2.6 1.1 5.5 2.3 8.5 3.5 3 1.2 5.9 2.7 8.5 4.6s4.8 4.2 6.6 7c1.8 2.8 2.6 6.4 2.6 10.7 0 3.4-.7 6.6-2.1 9.4-1.4 2.8-3.3 5.2-5.7 7.3-2.4 2-5.2 3.6-8.3 4.7-3.2 1.1-6.5 1.7-9.9 1.7-5.2 0-10.2-1-14.8-3-4.7-2-9-4.9-13-8.5l9.7-10.3zm144.5-56.5v13.2H55.5v63.8H40.6v-63.8H20.3v-13.2h55.5z"/></defs><clipPath id="SVGID_2_"><use xlink:href="#SVGID_1_" overflow="visible"/></clipPath><g class="st0"><path d="M-215.8-132.7l4.7 2S-315.9-99.1-352.6-13.4c-17.8 41.4 88.2 134.1 68.3 180.5-27.4 63.9-184.2 86.9-206.1 138-26.9 62.7 35 133.8 35 133.8l-4.7-2s-61.9-71.1-35-133.7c21.9-51 178.7-74 206.1-138 19.9-46.5-86-139.3-68.2-180.8 36.7-85.6 141.4-117.1 141.4-117.1z"/><path d="M-225.2-136.7l4.7 2S-325.3-103.1-362-17.4c-17.8 41.5 88.2 134.1 68.3 180.5-27.4 63.9-184.2 86.9-206.1 138-26.9 62.7 35 133.8 35 133.8l-4.7-2s-61.9-71.1-35-133.7c21.9-51 178.7-74 206.1-138.1 19.9-46.5-86-139.3-68.2-180.8 36.7-85.6 141.4-117 141.4-117z"/><path d="M-234.6-140.7l4.7 2s-104.8 31.6-141.5 117.3c-17.8 41.5 88.2 134.1 68.3 180.5-27.4 63.9-184.2 86.8-206.1 137.9-26.9 62.7 35 133.8 35 133.8l-4.7-2s-61.9-71.1-35-133.7c21.9-51 178.7-74 206.1-138 19.9-46.5-86-139.3-68.2-180.8 36.7-85.6 141.4-117 141.4-117z"/><path d="M-244-144.8l4.7 2s-104.8 31.6-141.5 117.3c-17.8 41.6 88.2 134.1 68.3 180.6-27.4 63.9-184.2 86.9-206.1 138-26.9 62.7 35 133.8 35 133.8l-4.7-2s-61.9-71.1-35-133.7c21.9-51 178.7-74 206.1-138.1 19.9-46.5-86-139.3-68.2-180.8C-348.7-113.3-244-144.8-244-144.8z"/><path d="M-253.4-148.8l4.7 2s-104.8 31.6-141.5 117.3C-408.1 12-302 104.6-321.9 151.1-349.3 215-506.1 238-528 289.1c-26.9 62.7 35 133.8 35 133.8l-4.7-2s-61.9-71.1-35-133.7c21.9-51.1 178.7-74.1 206.1-138.1 19.9-46.5-86-139.3-68.2-180.8 36.6-85.7 141.4-117.1 141.4-117.1z"/><path d="M-262.8-152.9l4.7 2s-104.8 31.6-141.5 117.3c-17.8 41.5 88.3 134.1 68.3 180.5-27.4 63.9-184.2 86.9-206.1 138-26.9 62.7 35 133.8 35 133.8l-4.7-2s-61.9-71.1-35-133.7c21.9-51 178.7-74 206.1-138.1 19.9-46.4-86-139.2-68.2-180.8 36.6-85.5 141.4-117 141.4-117z"/><path d="M-272.2-156.9l4.7 2S-372.3-123.3-409-37.6C-426.9 3.9-320.8 96.6-340.8 143c-27.4 63.9-184.2 86.9-206.1 138-26.9 62.7 35 133.8 35 133.8l-4.7-2s-61.9-71.1-35-133.7c21.9-51 178.7-74 206.1-138.1 19.9-46.5-86-139.3-68.2-180.8 36.7-85.7 141.5-117.1 141.5-117.1z"/><path d="M-281.7-160.9l4.7 2s-104.8 31.6-141.5 117.3c-17.8 41.4 88.3 134.1 68.3 180.5-27.4 63.9-184.2 86.9-206.1 138-26.9 62.7 35 133.8 35 133.8l-4.7-2s-61.9-71.1-35-133.7c21.9-51 178.7-74 206.1-138.1 19.9-46.5-86-139.3-68.2-180.8 36.7-85.5 141.4-117 141.4-117z"/><path d="M-291.1-164.9l4.7 2s-104.8 31.6-141.5 117.3c-17.8 41.4 88.3 134.1 68.4 180.5-27.4 63.9-184.2 86.9-206.1 138-26.9 62.7 35 133.8 35 133.8l-4.7-2s-61.9-71.1-35-133.7c21.9-51 178.6-74 206.1-138.1 19.9-46.5-86-139.3-68.2-180.8 36.6-85.6 141.3-117 141.3-117z"/><path d="M-300.4-168.9l4.7 2s-104.8 31.6-141.5 117.3C-455.1-8.2-349 84.5-368.9 130.9c-27.4 63.9-184.2 86.9-206.1 138-26.8 62.7 35 133.7 35 133.7l-4.7-2s-61.9-71.1-35-133.7c21.9-51.1 178.6-74.1 206.1-138.1 19.9-46.5-86-139.3-68.2-180.8 36.6-85.5 141.4-116.9 141.4-116.9z"/><path d="M-309.8-173l4.7 2s-104.8 31.6-141.5 117.3c-17.8 41.5 88.2 134.1 68.3 180.5-27.4 63.9-184.2 86.9-206.1 138-26.9 62.7 35 133.8 35 133.8l-4.7-2s-61.9-71.1-35-133.7c21.9-51 178.7-74 206.1-138.1 19.9-46.5-86-139.3-68.2-180.8 36.7-85.5 141.4-117 141.4-117z"/><path d="M-319.2-177l4.7 2S-419.3-143.4-456-57.7c-17.8 41.5 88.2 134.1 68.3 180.5-27.4 63.9-184.2 86.8-206.1 138-26.9 62.7 35 133.8 35 133.8l-4.7-2s-61.9-71.1-35-133.7c21.9-51 178.7-74 206.1-138.1 19.9-46.5-86-139.3-68.2-180.8 36.7-85.6 141.4-117 141.4-117z"/><path d="M-328.6-181.1l4.7 2s-104.8 31.6-141.5 117.3c-17.8 41.4 88.3 134.1 68.3 180.5-27.4 63.9-184.2 86.9-206.1 138-26.9 62.7 35 133.8 35 133.8l-4.7-2s-61.9-71.1-35-133.7c21.9-51 178.7-74 206.1-138.1 19.9-46.5-86-139.3-68.2-180.8 36.7-85.5 141.4-117 141.4-117z"/><path d="M-338-185.1l4.7 2s-104.8 31.6-141.5 117.3c-17.8 41.4 88.3 134.1 68.3 180.5-27.4 63.9-184.2 86.9-206.1 138-26.9 62.7 35 133.8 35 133.8l-4.7-2s-61.9-71.1-35-133.7c21.9-51 178.7-74 206.1-138.1 19.9-46.5-86-139.3-68.2-180.8 36.7-85.6 141.4-117 141.4-117z"/><path d="M-347.4-189.1l4.7 2s-104.8 31.6-141.5 117.3C-502-28.3-396 64.3-415.9 110.8c-27.4 63.9-184.2 86.9-206.1 138-26.9 62.7 35 133.8 35 133.8l-4.7-2s-61.9-71.1-35-133.7c21.9-51 178.7-74 206.1-138.1 19.9-46.5-86-139.3-68.2-180.8 36.7-85.7 141.4-117.1 141.4-117.1z"/><path d="M-356.8-193.2l4.7 2s-104.8 31.6-141.5 117.3c-17.8 41.5 88.2 134.2 68.3 180.6-27.4 63.9-184.2 86.9-206.1 137.9-26.8 62.7 35.1 133.8 35.1 133.8l-4.7-2s-61.9-71.1-35-133.7c21.9-51 178.7-74 206.1-138.1 19.9-46.5-86-139.3-68.2-180.8 36.6-85.5 141.3-117 141.3-117z"/><path class="st1" d="M-366.2-197.1l4.7 2S-466.3-163.5-503-77.8c-17.9 41.4 88.2 134.1 68.3 180.5-27.4 63.9-184.1 86.8-206 138-26.9 62.7 35 133.8 35 133.8l-4.7-2s-61.9-71.1-35-133.7c21.9-51 178.7-74 206.1-138.1 19.9-46.5-86-139.3-68.2-180.8 36.6-85.6 141.3-117 141.3-117z"/><path d="M395 129.3l4.7 2s-104.8 31.6-141.5 117.3c-17.8 41.4 88.3 134.1 68.3 180.5-27.4 63.9-184.2 86.9-206.1 138-26.9 62.7 35 133.8 35 133.8l-4.7-2s-61.9-71.1-35-133.7c21.9-51 178.7-74 206.1-138.1 19.9-46.5-86-139.3-68.2-180.8 36.7-85.5 141.4-117 141.4-117z"/><path d="M385.7 125.3l4.7 2s-104.8 31.6-141.5 117.3c-17.8 41.4 88.3 134.1 68.3 180.5C289.8 489 133 512 111.1 563.1c-26.9 62.7 35 133.8 35 133.8l-4.7-2s-61.9-71.1-35-133.7c21.9-51 178.7-74 206.1-138.1 19.9-46.5-86.1-139.3-68.2-180.8 36.7-85.6 141.4-117 141.4-117z"/><path d="M376.3 121.2l4.7 2s-104.8 31.6-141.5 117.3c-17.8 41.4 88.3 134.1 68.3 180.5-27.4 63.9-184.2 86.9-206.1 138-26.9 62.7 35 133.8 35 133.8l-4.7-2s-61.9-71.1-35-133.7c21.9-51 178.7-74 206.1-138.1 19.9-46.4-86-139.2-68.2-180.7 36.7-85.6 141.4-117.1 141.4-117.1z"/><path d="M366.9 117.2l4.7 2s-104.8 31.6-141.5 117.3c-17.8 41.4 88.3 134.1 68.3 180.5-27.4 63.9-184.2 86.9-206.1 138-26.9 62.7 35 133.8 35 133.8l-4.7-2s-61.9-71.1-35-133.7c21.9-51 178.7-74 206.1-138.1 19.9-46.5-86-139.3-68.2-180.8 36.7-85.6 141.4-117 141.4-117z"/><path d="M357.5 113.2l4.7 2s-104.8 31.6-141.5 117.3C202.9 274 308.9 366.6 289 413.1 261.6 477 104.8 500 82.9 551.1c-26.9 62.7 35 133.8 35 133.8l-4.7-2s-61.9-71.1-35-133.7c21.9-51 178.7-74 206.1-138.1 19.9-46.5-86-139.3-68.2-180.8 36.7-85.7 141.4-117.1 141.4-117.1z"/><path d="M348.1 109.1l4.7 2S248 142.7 211.3 228.4c-17.8 41.5 88.3 134.1 68.3 180.5-27.4 63.9-184.2 86.9-206.1 138-26.9 62.7 35 133.8 35 133.8l-4.7-2s-61.9-71.1-35-133.7c21.9-51 178.7-74 206.1-138.1 19.9-46.5-86-139.3-68.2-180.8 36.7-85.5 141.4-117 141.4-117z"/><path d="M338.7 105.2l4.7 2s-104.8 31.6-141.5 117.3c-17.8 41.4 88.3 134.1 68.3 180.5C242.8 468.9 86 491.9 64.1 543c-26.8 62.7 35 133.8 35 133.8l-4.7-2s-61.9-71.1-35-133.7c21.9-51 178.7-74 206.1-138.1 19.9-46.5-86-139.3-68.2-180.8 36.7-85.7 141.4-117 141.4-117z"/><path d="M329.3 101.1l4.7 2s-104.8 31.6-141.5 117.3c-17.8 41.4 88.3 134.1 68.3 180.5-27.4 63.9-184.2 86.9-206.1 138-26.9 62.7 35 133.8 35 133.8l-4.7-2S23.1 599.6 50 537c21.9-51 178.7-74 206.1-138.1 19.9-46.5-86-139.3-68.2-180.8 36.7-85.5 141.4-117 141.4-117z"/><path d="M319.9 97.1l4.7 2s-104.8 31.6-141.5 117.3c-17.8 41.4 88.3 134.1 68.3 180.5-27.4 63.9-184.2 86.9-206.1 138-26.9 62.7 35 133.8 35 133.8l-4.7-2s-61.9-71.1-35-133.7c21.9-51 178.7-74 206.1-138.1 19.9-46.5-86-139.3-68.2-180.8 36.6-85.6 141.4-117 141.4-117z"/><path d="M310.5 93.1l4.7 2s-104.8 31.6-141.5 117.3C155.9 253.8 262 346.5 242 392.9c-27.4 63.9-184.2 86.9-206.1 138-26.9 62.7 35 133.7 35 133.7l-4.7-2s-61.9-71.1-35-133.7c21.9-51 178.7-74 206.1-138.1 20-46.5-86-139.3-68.2-180.8 36.6-85.5 141.4-116.9 141.4-116.9z"/><path d="M301.1 89l4.7 2S201 122.6 164.3 208.3c-17.8 41.4 88.3 134.1 68.3 180.5-27.4 63.9-184.2 86.9-206.1 138-26.9 62.7 35 133.8 35 133.8l-4.7-2s-61.9-71.1-35-133.7c21.9-51 178.7-74 206.1-138.1 19.9-46.5-86-139.3-68.2-180.8 36.6-85.5 141.4-117 141.4-117z"/><path d="M291.7 85l4.7 2s-104.8 31.6-141.5 117.3c-17.8 41.4 88.3 134.1 68.3 180.5-27.4 63.9-184.2 86.9-206.1 138-26.9 62.7 35 133.8 35 133.8l-4.7-2s-61.9-71.1-35-133.7c21.9-51 178.7-74 206.1-138.1 19.9-46.5-86-139.3-68.2-180.8 36.6-85.6 141.4-117 141.4-117z"/><path d="M282.3 80.9l4.7 2s-104.8 31.6-141.5 117.3c-17.8 41.4 88.3 134.1 68.3 180.5-27.4 63.9-184.2 86.9-206.1 138-26.9 62.7 35 133.8 35 133.8l-4.7-2s-61.9-71.1-35-133.7c21.9-51 178.7-74 206.1-138.1 19.9-46.5-86-139.3-68.2-180.8 36.7-85.5 141.4-117 141.4-117z"/><path d="M272.9 76.9l4.7 2s-104.8 31.6-141.5 117.3c-17.8 41.4 88.2 134.1 68.3 180.5-27.4 63.9-184.2 86.9-206.1 138-26.9 62.7 35 133.8 35 133.8l-4.7-2s-61.9-71.1-35-133.7c21.9-51 178.7-74 206.1-138.1 19.9-46.5-86-139.3-68.2-180.8 36.7-85.6 141.4-117 141.4-117z"/><path d="M263.5 72.8l4.7 2s-104.8 31.6-141.5 117.3c-17.8 41.5 88.2 134.2 68.3 180.6-27.4 63.9-184.2 86.9-206.1 137.9-26.9 62.7 35 133.8 35 133.8l-4.7-2s-61.9-71.1-35-133.7c21.9-51 178.7-74 206.1-138.1 19.9-46.4-86-139.2-68.2-180.7 36.7-85.6 141.4-117.1 141.4-117.1z"/><path d="M254.1 68.8l4.7 2S154 102.4 117.3 188.1c-17.8 41.4 88.3 134.1 68.3 180.5-27.4 64-184.2 87-206.1 138-26.9 62.7 35 133.8 35 133.8l-4.7-2s-61.9-71.1-35-133.7c21.9-51 178.7-74 206.1-138.1 19.9-46.5-86-139.2-68.2-180.8 36.7-85.6 141.4-117 141.4-117z"/><path d="M244.7 64.9l4.7 2S144.6 98.5 107.9 184.2c-17.8 41.4 88.3 134.1 68.3 180.5-27.4 63.9-184.2 86.9-206.1 138-26.9 62.7 35 133.8 35 133.8l-4.7-2s-61.9-71.1-35-133.7c21.9-51 178.7-74 206.1-138.1 19.9-46.5-86-139.3-68.2-180.8 36.7-85.6 141.4-117 141.4-117z"/><path d="M263.5 72.8l4.7 2s-104.8 31.6-141.5 117.3c-17.8 41.5 88.2 134.2 68.3 180.6-27.4 63.9-184.2 86.9-206.1 137.9-26.9 62.7 35 133.8 35 133.8l-4.7-2s-61.9-71.1-35-133.7c21.9-51 178.7-74 206.1-138.1 19.9-46.4-86-139.2-68.2-180.7 36.7-85.6 141.4-117.1 141.4-117.1z"/><path d="M254.1 68.8l4.7 2S154 102.4 117.3 188.1c-17.8 41.4 88.3 134.1 68.3 180.5-27.4 64-184.2 87-206.1 138-26.9 62.7 35 133.8 35 133.8l-4.7-2s-61.9-71.1-35-133.7c21.9-51 178.7-74 206.1-138.1 19.9-46.5-86-139.2-68.2-180.8 36.7-85.6 141.4-117 141.4-117z"/><path d="M244.7 64.9l4.7 2S144.6 98.5 107.9 184.2c-17.8 41.4 88.3 134.1 68.3 180.5-27.4 63.9-184.2 86.9-206.1 138-26.9 62.7 35 133.8 35 133.8l-4.7-2s-61.9-71.1-35-133.7c21.9-51 178.7-74 206.1-138.1 19.9-46.5-86-139.3-68.2-180.8 36.7-85.6 141.4-117 141.4-117z"/><path d="M235.3 60.8l4.7 2S135.2 94.4 98.5 180.1c-17.8 41.5 88.2 134.1 68.3 180.5-27.4 63.9-184.2 86.9-206.1 138-26.8 62.7 35.1 133.8 35.1 133.8l-4.7-2s-61.9-71.1-35-133.7c21.9-51.1 178.7-74.1 206.1-138.1 19.9-46.5-86-139.3-68.2-180.8 36.6-85.5 141.3-117 141.3-117z"/><path d="M225.9 56.8l4.7 2S125.8 90.4 89.1 176.1c-17.8 41.4 88.3 134.1 68.3 180.5-27.4 63.9-184.2 86.9-206.1 138-26.9 62.7 35 133.8 35 133.8l-4.7-2s-61.9-71.1-35-133.7c21.9-51 178.7-74 206.1-138.1 20-46.5-86-139.3-68.2-180.8 36.7-85.6 141.4-117 141.4-117z"/><path d="M216.5 52.7l4.7 2S116.4 86.3 79.7 172C61.9 213.4 168 306.1 148 352.5c-27.4 63.9-184.2 86.9-206.1 138-26.9 62.7 35 133.8 35 133.8l-4.7-2s-61.9-71.1-35-133.7c21.9-51 178.7-74 206.1-138.1 20-46.4-86-139.2-68.2-180.7C111.8 84.2 216.5 52.7 216.5 52.7z"/><path d="M207.1 48.7l4.7 2S107 82.3 70.3 168c-17.8 41.4 88.3 134.1 68.3 180.5-27.4 63.9-184.2 86.9-206.1 138-26.9 62.7 35 133.8 35 133.8l-4.7-2s-61.9-71.1-35-133.7c21.9-51 178.7-74 206.1-138.1 20-46.5-86-139.3-68.2-180.8 36.7-85.6 141.4-117 141.4-117z"/><path d="M197.7 44.7l4.7 2S97.6 78.3 60.9 164c-17.9 41.5 88.2 134.1 68.2 180.6-27.4 63.9-184.2 86.9-206.1 138-26.9 62.7 35 133.8 35 133.8l-4.7-2s-61.9-71.1-35-133.7c21.9-51 178.7-74 206.1-138.1 19.9-46.5-86-139.3-68.2-180.8C92.9 76.1 197.7 44.7 197.7 44.7z"/><path d="M188.4 40.6l4.7 2S88.3 74.2 51.6 159.9c-17.9 41.5 88.2 134.1 68.3 180.5-27.4 63.9-184.2 86.9-206.1 138-26.9 62.7 35 133.8 35 133.8l-4.7-2s-61.9-71.1-35-133.7c21.9-51 178.7-74 206.1-138.1 19.9-46.5-86.1-139.2-68.2-180.8 36.6-85.5 141.4-117 141.4-117z"/><path d="M178.9 36.6l4.7 2S78.8 70.2 42.1 155.9c-17.9 41.4 88.2 134.1 68.3 180.5-27.4 63.9-184.2 86.9-206.1 138-26.9 62.7 35 133.8 35 133.8l-4.7-2s-61.9-71.1-35-133.7c21.9-51 178.7-74 206.1-138.1 19.9-46.5-86-139.3-68.2-180.8 36.7-85.6 141.4-117 141.4-117z"/><path d="M169.5 32.5l4.7 2S69.4 66.1 32.7 151.8C14.9 193.4 121 286 101 332.4c-27.4 63.9-184.2 86.9-206.1 138-26.9 62.7 35 133.8 35 133.8l-4.7-2s-61.9-71.1-35-133.7c21.9-51 178.7-74 206.1-138.1 19.9-46.5-86-139.3-68.2-180.8C64.8 64 169.5 32.5 169.5 32.5z"/><path d="M160.1 28.6l4.7 2S60 62.2 23.3 147.9C5.5 189.3 111.6 282 91.6 328.4c-27.4 63.9-184.2 86.9-206.1 138-26.9 62.7 35 133.8 35 133.8l-4.7-2s-61.9-71.1-35-133.7c21.9-51 178.7-74 206.1-138.1 19.9-46.5-86-139.3-68.2-180.8 36.7-85.6 141.4-117 141.4-117z"/><path d="M150.7 24.6l4.7 2S50.6 58.2 13.9 143.9C-3.9 185.3 102.2 278 82.2 324.3c-27.4 63.9-184.2 86.9-206.1 138-26.9 62.7 35 133.8 35 133.8l-4.7-2s-61.9-71.1-35-133.7c21.9-51 178.7-74 206.1-138.1 19.9-46.4-86-139.2-68.2-180.7C46 56 150.7 24.6 150.7 24.6z"/><path d="M141.3 20.5l4.7 2S41.2 54.1 4.5 139.8c-17.8 41.4 88.3 134.1 68.3 180.5-27.4 63.9-184.2 86.9-206.1 138-26.8 62.7 35 133.8 35 133.8l-4.7-2s-61.9-71.1-35-133.7c21.9-51 178.7-74 206.1-138.1C88 271.8-17.9 179.1-.1 137.5c36.7-85.6 141.4-117 141.4-117z"/><path d="M131.9 16.5l4.7 2S31.8 50.1-4.9 135.8c-17.8 41.4 88.3 134.1 68.3 180.5-27.4 63.9-184.2 86.9-206.1 138-26.8 62.7 35.1 133.8 35.1 133.8l-4.7-2s-61.9-71.1-35-133.7c21.9-51 178.7-74 206.1-138.1 19.9-46.5-86-139.3-68.2-180.8 36.6-85.6 141.3-117 141.3-117z"/><path d="M122.5 12.4l4.7 2S22.4 46-14.3 131.7C-32.1 173.1 74 265.8 54 312.2c-27.4 63.9-184.2 86.9-206.1 138C-178.9 512.9-117 584-117 584l-4.7-2s-61.9-71.1-35-133.7c21.9-51 178.7-74 206.1-138.1 19.9-46.5-86-139.3-68.2-180.8 36.6-85.5 141.3-117 141.3-117z"/><path d="M113.1 8.4l4.7 2S13 42-23.7 127.7c-17.8 41.4 88.3 134.1 68.4 180.5-27.4 63.9-184.2 86.9-206.1 138-26.9 62.7 35 133.8 35 133.8l-4.7-2s-61.9-71.1-35-133.7c21.9-51 178.7-74 206.1-138.1 19.9-46.5-86-139.3-68.2-180.8C8.4 39.8 113.1 8.4 113.1 8.4z"/><path d="M103.7 4.3l4.7 2S3.6 37.9-33.1 123.6c-17.8 41.5 88.3 134.2 68.4 180.5C7.9 368-148.9 391-170.8 442.1c-26.9 62.7 35 133.8 35 133.8l-4.7-2s-61.9-71.1-35-133.7c21.9-51 178.7-74 206.1-138.1 19.9-46.5-86-139.3-68.2-180.8C-1 35.8 103.7 4.3 103.7 4.3z"/><path d="M94.4.3l4.7 2S-5.7 33.9-42.4 119.6C-60.2 161 45.9 253.7 25.9 300.1-1.5 364-158.3 387-180.2 438.1c-26.9 62.7 35 133.8 35 133.8l-4.7-2s-61.9-71.1-35-133.7c21.9-51 178.7-74 206.1-138.1 19.9-46.5-86-139.3-68.2-180.8C-10.4 31.7 94.4.3 94.4.3z"/><path d="M85-3.7l4.7 2S-15.1 29.9-51.8 115.6C-69.6 157 36.5 249.7 16.5 296.1c-27.4 63.9-184.2 86.9-206.1 138-26.9 62.7 35 133.8 35 133.8l-4.7-2s-61.9-71.1-35-133.7c21.9-51 178.7-74 206.1-138.1 19.9-46.5-86-139.3-68.2-180.8C-19.8 27.7 85-3.7 85-3.7z"/><path d="M75.6-7.7l4.7 2S-24.5 25.9-61.2 111.6C-79 153.1 27 245.7 7.1 292.1-20.3 356-177.1 379-199 430.1c-26.9 62.7 35 133.8 35 133.8l-4.7-2s-61.9-71.1-35-133.7c21.9-51 178.7-74 206.1-138.1 19.9-46.5-86-139.3-68.2-180.8C-29.2 23.7 75.6-7.7 75.6-7.7z"/><path d="M66.1-11.7l4.7 2S-34 21.9-70.7 107.6C-88.5 149 17.6 241.7-2.4 288.1c-27.4 63.9-184.2 86.9-206.1 138-26.9 62.7 35 133.8 35 133.8l-4.7-2s-61.9-71.1-35-133.7c21.9-51 178.7-74 206.1-138.1 19.9-46.5-86-139.3-68.2-180.8 36.7-85.6 141.4-117 141.4-117z"/><path d="M56.7-15.8l4.7 2S-43.4 17.8-80.1 103.5C-97.9 145 8.2 237.7-11.8 284c-27.4 63.9-184.2 86.9-206.1 138-26.9 62.7 35 133.8 35 133.8l-4.7-2s-61.9-71.1-35-133.7c21.9-51 178.7-74 206.1-138.1 19.9-46.4-86-139.2-68.2-180.7C-48 15.7 56.7-15.8 56.7-15.8z"/><path d="M47.3-19.8l4.7 2S-52.8 13.8-89.5 99.5C-107.3 140.9-1.2 233.6-21.2 280c-27.4 63.9-184.2 86.9-206.1 138-26.9 62.7 35 133.8 35 133.8l-4.7-2s-61.9-71.1-35-133.7c21.9-51 178.7-74 206.1-138.1 19.9-46.5-86-139.3-68.2-180.8 36.7-85.6 141.4-117 141.4-117z"/><path d="M37.9-23.8l4.7 2S-62.2 9.8-98.9 95.5c-17.8 41.4 88.3 134.1 68.3 180.4-27.4 63.9-184.2 86.9-206.1 138-26.8 62.8 35.1 133.9 35.1 133.9l-4.7-2s-61.9-71.1-35-133.7c21.9-51 178.7-74 206.1-138.1 19.9-46.5-86-139.3-68.2-180.8 36.6-85.6 141.3-117 141.3-117z"/><path d="M28.5-27.9l4.7 2S-71.6 5.7-108.3 91.4C-126.1 132.9-20 225.5-40 271.9c-27.4 63.9-184.1 86.9-206 138-26.9 62.7 35 133.8 35 133.8l-4.7-2s-61.9-71.1-35-133.7c21.9-51 178.7-74 206.1-138.1 19.9-46.5-86-139.3-68.2-180.8 36.6-85.5 141.3-117 141.3-117z"/><path d="M19.1-31.9l4.7 2S-81 1.7-117.7 87.4c-17.8 41.4 88.3 134.1 68.3 180.5-27.4 63.9-184.1 86.8-206 138-26.9 62.7 35 133.8 35 133.8l-4.7-2s-61.9-71.1-35-133.7c21.9-51.1 178.6-74.1 206.1-138.1 19.9-46.5-86-139.3-68.2-180.8C-85.6-.5 19.1-31.9 19.1-31.9z"/><path d="M9.7-36l4.7 2S-90.4-2.4-127.1 83.3c-17.8 41.5 88.3 134.1 68.4 180.5-27.5 63.9-184.2 86.9-206.1 138-26.9 62.7 35 133.8 35 133.8l-4.7-2s-61.9-71.1-35-133.7c21.9-51 178.6-74 206.1-138.1 19.9-46.5-86-139.3-68.2-180.8C-95-4.5 9.7-36 9.7-36z"/><path d="M.3-40L5-38S-99.8-6.4-136.5 79.3c-17.8 41.4 88.3 134.1 68.3 180.5-27.3 63.9-184.1 86.8-206 138-26.9 62.7 35 133.8 35 133.8l-4.7-2s-61.9-71.1-35-133.7c21.9-51 178.7-74 206.1-138.1 19.9-46.5-86-139.3-68.2-180.8C-104.4-8.6.3-40 .3-40z"/><path d="M-9-44.1l4.7 2S-109.1-10.5-145.8 75.2c-17.9 41.5 88.2 134.2 68.3 180.5-27.4 64-184.2 86.9-206.1 138-26.9 62.7 35 133.9 35 133.9l-4.7-2s-61.9-71.1-35-133.7c21.9-51 178.7-74 206.1-138.1 19.9-46.5-86.1-139.3-68.2-180.8C-113.7-12.6-9-44.1-9-44.1z"/><path d="M-18.4-48l4.7 2S-118.5-14.4-155.2 71.3c-17.8 41.4 88.3 134.1 68.3 180.5-27.4 63.9-184.2 86.9-206.1 138-26.9 62.7 35 133.8 35 133.8l-4.7-2s-61.9-71.1-35-133.7c21.9-51 178.7-74 206.1-138.1 19.9-46.5-86-139.3-68.2-180.8C-123.1-16.6-18.4-48-18.4-48z"/><path d="M-27.8-52l4.7 2S-127.9-18.4-164.6 67.3c-17.8 41.4 88.3 134.1 68.3 180.5-27.4 63.9-184.2 86.9-206.1 138-26.9 62.7 35 133.8 35 133.8l-4.7-2s-61.9-71.1-35-133.7c21.9-51 178.7-74 206.1-138.1 19.9-46.5-86-139.3-68.2-180.8C-132.6-20.6-27.8-52-27.8-52z"/><path d="M-37.2-56.1l4.7 2S-137.3-22.5-174 63.2c-17.8 41.4 88.3 134.1 68.3 180.5-27.5 63.9-184.2 86.9-206.1 138-26.9 62.7 35 133.8 35 133.8l-4.7-2s-61.9-71.1-35-133.7c21.9-51 178.7-74 206.1-138.1 19.9-46.5-86-139.3-68.2-180.8 36.6-85.5 141.4-117 141.4-117z"/><path d="M-46.6-60.1l4.7 2S-146.7-26.5-183.4 59.2c-17.8 41.4 88.3 134.1 68.3 180.5-27.5 63.9-184.2 86.9-206.1 138-26.9 62.7 35 133.8 35 133.8l-4.7-2s-61.9-71.1-35-133.7c21.9-51.1 178.7-74 206.1-138.1 19.9-46.5-86-139.3-68.2-180.8 36.6-85.6 141.4-117 141.4-117z"/><path d="M-56.1-64.2l4.7 2S-156.2-30.6-192.9 55.1c-17.8 41.5 88.3 134.1 68.3 180.5-27.4 64-184.1 87-206 138-26.8 62.7 35 133.9 35 133.9l-4.7-2s-61.9-71.1-35-133.7c21.8-51.2 178.6-74.2 206-138.1 19.9-46.5-86-139.3-68.2-180.8C-160.8-32.7-56.1-64.2-56.1-64.2z"/><path d="M-65.5-68.2l4.7 2S-165.6-34.6-202.3 51.1C-220.1 92.6-114 185.2-134 231.7c-27.4 63.9-184.1 86.9-205.9 137.9-26.9 62.7 35 133.8 35 133.8l-4.7-2s-61.9-71.1-35-133.7c21.8-51 178.6-74 206-138.1 19.9-46.5-86-139.3-68.2-180.8 36.6-85.6 141.3-117 141.3-117z"/><path d="M-74.9-72.2l4.7 2S-175-38.6-211.7 47.1c-17.8 41.5 88.2 134.1 68.3 180.5-27.4 64-184.1 86.9-206 138-26.9 62.8 35 133.9 35 133.9l-4.7-2s-61.9-71.1-35-133.7c21.9-51.2 178.7-74.2 206.1-138.2 19.9-46.5-86-139.3-68.2-180.8 36.6-85.6 141.3-117 141.3-117z"/><path d="M-84.3-76.3l4.7 2S-184.4-42.7-221.1 43c-17.8 41.5 88.2 134.1 68.3 180.6-27.4 63.9-184.2 86.9-206.1 138-26.8 62.7 35.1 133.8 35.1 133.8l-4.7-2s-61.9-71.1-35-133.7c21.9-51 178.7-74 206.1-138.1 19.9-46.6-86.1-139.3-68.3-180.9 36.7-85.5 141.4-117 141.4-117z"/><path d="M-93.7-80.3l4.7 2S-193.8-46.7-230.5 39c-17.8 41.5 88.2 134.2 68.4 180.6-27.4 63.9-184.2 86.9-206.1 138-26.9 62.7 35 133.8 35 133.8l-4.7-2s-61.9-71.1-35-133.7c21.9-51 178.7-74 206.1-138.1 19.9-46.6-86-139.3-68.2-180.9 36.6-85.6 141.3-117 141.3-117z"/><path d="M-103-84.3l4.7 2S-203.1-50.7-239.8 35c-17.8 41.4 88.3 134.1 68.3 180.5-27.4 63.9-184.2 86.9-206.1 138-26.9 62.7 35 133.8 35 133.8l-4.7-2s-61.9-71.1-35-133.7c21.9-51 178.7-74 206.1-138.1 19.9-46.5-86.1-139.2-68.2-180.8 36.6-85.5 141.4-117 141.4-117z"/><path d="M-112.4-88.3l4.7 2S-212.5-54.7-249.2 31C-267 72.4-161 165.1-180.9 211.5c-27.4 63.9-184.2 86.9-206.1 138-26.9 62.7 35 133.8 35 133.8l-4.7-2s-61.9-71.1-35-133.7c21.9-51 178.7-74 206.1-138.1 19.9-46.6-86.1-139.3-68.2-180.8 36.7-85.6 141.4-117 141.4-117z"/><path d="M-121.8-92.4l4.7 2S-221.9-58.8-258.6 26.9c-17.8 41.5 88.2 134.2 68.3 180.5-27.4 63.9-184.2 86.9-206.1 138-26.9 62.7 35 133.9 35 133.9l-4.7-2s-61.9-71.1-35-133.7c21.9-51 178.7-74 206.1-138.1 19.9-46.5-86-139.3-68.2-180.8 36.7-85.6 141.4-117.1 141.4-117.1z"/><path d="M-131.2-96.4l4.7 2S-231.3-62.8-268 22.9c-17.8 41.6 88.2 134.1 68.3 180.5-27.4 63.9-184.2 86.9-206.1 138-26.9 62.7 35 133.8 35 133.8l-4.7-2s-61.9-71.1-35-133.7c21.9-51 178.7-74 206.1-138.1 19.9-46.5-86.1-139.3-68.3-180.8 36.8-85.6 141.5-117 141.5-117z"/><path d="M-140.6-100.4l4.7 2S-240.7-66.8-277.4 18.9c-17.8 41.4 88.3 134.1 68.3 180.5-27.4 63.9-184.2 86.8-206.1 138-26.9 62.7 35 133.8 35 133.8l-4.7-2s-61.9-71.1-35-133.7c21.9-51.1 178.7-74.1 206.1-138.1 19.9-46.5-86.1-139.3-68.3-180.8 36.7-85.6 141.5-117 141.5-117z"/><path d="M-150-104.5l4.7 2S-250.1-70.9-286.8 14.8c-17.8 41.5 88.3 134.1 68.3 180.5-27.4 63.9-184.1 86.9-206.1 138-26.9 62.7 35 133.8 35 133.8l-4.7-2s-61.9-71.1-35-133.7c21.9-51 178.7-74 206.1-138.1 19.9-46.5-86-139.3-68.2-180.8 36.6-85.5 141.4-117 141.4-117z"/><path d="M-159.4-108.5l4.7 2S-259.5-74.9-296.2 10.8C-314.1 52.3-208 144.9-228 191.4c-27.4 63.9-184 86.8-206 137.9-26.8 62.7 35.1 133.8 35.1 133.8l-4.7-2s-61.9-71.1-35-133.7c21.9-51 178.7-74 206.1-138.1 19.9-46.5-86-139.3-68.2-180.8 36.5-85.6 141.3-117 141.3-117z"/><path d="M-168.9-112.6l4.7 2S-269-79-305.7 6.7c-17.8 41.5 88.3 134.2 68.3 180.5-27.4 64-184.1 86.9-206 138-26.9 62.7 35 133.8 35 133.8l-4.7-2s-61.9-71.1-35-133.7c21.9-51 178.7-74 206.1-138.1 20-46.4-86.1-139.2-68.3-180.7 36.7-85.6 141.4-117.1 141.4-117.1z"/><path d="M-178.3-116.6l4.7 2S-278.4-83-315.1 2.7c-17.8 41.5 88.3 134.2 68.3 180.6-27.4 63.9-184.1 86.9-206 138-26.9 62.7 35 133.8 35 133.8l-4.7-2s-61.9-71.1-35-133.7c21.9-51 178.7-74 206.1-138.1 20-46.6-86.1-139.3-68.3-180.9 36.7-85.6 141.4-117 141.4-117z"/><path d="M-187.7-120.5l4.7 2S-287.8-86.9-324.5-1.2c-17.8 41.4 88.2 134.1 68.3 180.5-27.4 63.9-184.1 86.8-206 138-26.9 62.7 35 133.8 35 133.8l-4.7-2s-61.9-71.1-35-133.7c21.9-51.2 178.6-74.2 206.1-138.2 19.9-46.5-86-139.2-68.2-180.8 36.6-85.6 141.3-116.9 141.3-116.9z"/><path d="M-197.1-124.6l4.7 2S-297.2-91-333.9-5.3c-17.8 41.4 88.2 134.1 68.3 180.5-27.3 63.9-184.1 86.9-206 138-26.9 62.7 35 133.8 35 133.8l-4.7-2s-61.9-71.1-35-133.7c21.9-51 178.6-74 206.1-138.1 19.9-46.6-86-139.3-68.2-180.8 36.6-85.5 141.3-117 141.3-117z"/><path d="M-206.4-128.6l4.7 2S-306.5-95-343.2-9.3c-17.9 41.4 88.1 134.1 68.3 180.5-27.4 63.9-184.2 86.8-206.1 138-26.9 62.7 35 133.8 35 133.8l-4.7-2s-61.9-71.1-35-133.7c21.9-51 178.7-74 206.1-138.1 19.9-46.6-86.1-139.3-68.2-180.8 36.7-85.6 141.4-117 141.4-117z"/><g><path d="M555 198.5l4.7 2s-104.8 31.6-141.5 117.3c-17.8 41.4 88.3 134.1 68.3 180.5-27.4 63.9-184.2 86.9-206.1 138-26.9 62.7 35 133.8 35 133.8l-4.7-2s-61.9-71.1-35-133.7c21.9-51 178.7-74 206.1-138.1 19.9-46.5-86-139.3-68.2-180.8 36.7-85.6 141.4-117 141.4-117z"/><path d="M545.6 194.4l4.7 2S445.5 228 408.8 313.7c-17.8 41.4 88.3 134.1 68.3 180.5-27.4 63.9-184.2 86.9-206.1 138-26.9 62.7 35 133.8 35 133.8l-4.7-2s-61.9-71.1-35-133.7c21.9-51 178.7-74 206.1-138.1 19.9-46.5-86-139.3-68.2-180.8 36.7-85.5 141.4-117 141.4-117z"/><path d="M536.2 190.4l4.7 2S436.1 224 399.4 309.7c-17.8 41.4 88.3 134.1 68.3 180.5-27.4 63.9-184.2 86.9-206.1 138-26.9 62.7 35 133.8 35 133.8l-4.7-2s-61.9-71.1-35-133.7c21.9-51 178.7-74 206.1-138.1 19.9-46.5-86-139.3-68.2-180.8 36.6-85.6 141.4-117 141.4-117z"/><path d="M526.8 186.5l4.7 2S426.7 220.1 390 305.8c-17.8 41.4 88.3 134.1 68.3 180.5-27.4 63.9-184.2 86.9-206.1 138-26.8 62.6 35.1 133.8 35.1 133.8l-4.7-2s-61.9-71.1-35-133.7c21.9-51 178.7-74 206.1-138.1 19.9-46.5-86-139.3-68.2-180.8 36.5-85.7 141.3-117 141.3-117z"/><path d="M517.3 182.4l4.7 2S417.2 216 380.5 301.7c-17.8 41.4 88.3 134.1 68.3 180.5-27.4 63.9-184.2 86.9-206.1 138-26.9 62.7 35 133.8 35 133.8l-4.7-2s-61.9-71.1-35-133.7c21.9-51 178.7-74 206.1-138.1 20-46.5-86-139.2-68.2-180.8 36.7-85.5 141.4-117 141.4-117z"/><path d="M507.9 178.4l4.7 2S407.8 212 371.1 297.7c-17.8 41.4 88.3 134.1 68.3 180.5-27.4 63.9-184.2 86.9-206.1 138-26.9 62.7 35 133.8 35 133.8l-4.7-2s-61.9-71.1-35-133.7c21.9-51 178.7-74 206.1-138.1 19.9-46.5-86-139.3-68.2-180.8 36.7-85.6 141.4-117 141.4-117z"/><path d="M498.5 174.3l4.7 2s-104.8 31.6-141.5 117.3C343.9 335 450 427.7 430 474.1c-27.4 63.9-184.2 86.9-206.1 138-26.9 62.7 35 133.8 35 133.8l-4.7-2s-61.9-71.1-35-133.7c21.9-51 178.7-74 206.1-138.1 19.9-46.5-86-139.3-68.2-180.8 36.7-85.5 141.4-117 141.4-117z"/><path d="M489.2 170.3l4.7 2s-104.8 31.6-141.5 117.3c-17.8 41.4 88.3 134.1 68.3 180.5-27.4 63.9-184.2 86.9-206.1 138-26.9 62.7 35 133.8 35 133.8l-4.7-2s-61.9-71.1-35-133.7c21.9-51 178.7-74 206.1-138.1 19.9-46.5-86-139.3-68.2-180.8 36.6-85.6 141.4-117 141.4-117z"/><path d="M479.8 166.2l4.7 2S379.7 199.8 343 285.5c-17.8 41.4 88.3 134.1 68.3 180.5-27.4 63.9-184.2 86.9-206.1 138-26.9 62.7 35 133.9 35 133.9l-4.7-2s-61.9-71.1-35-133.7c21.9-51 178.7-74 206.1-138.1 19.9-46.5-86.1-139.3-68.2-180.8 36.7-85.6 141.4-117.1 141.4-117.1z"/><path d="M470.4 162.2l4.7 2s-104.8 31.6-141.5 117.3c-17.8 41.4 88.3 134.1 68.3 180.5-27.4 63.9-184.2 86.9-206.1 138-26.9 62.7 35 133.8 35 133.8l-4.7-2s-61.9-71.1-35-133.7c21.9-51 178.7-74 206.1-138.1 19.9-46.5-86-139.2-68.2-180.8 36.7-85.6 141.4-117 141.4-117z"/><path d="M461 158.2l4.7 2s-104.8 31.6-141.5 117.3c-17.8 41.4 88.3 134.1 68.3 180.5-27.4 63.9-184.2 86.9-206.1 138-26.9 62.7 35 133.8 35 133.8l-4.7-2s-61.9-71.1-35-133.7c21.9-51 178.7-74 206.1-138.1 19.9-46.5-86-139.3-68.2-180.8 36.7-85.6 141.4-117 141.4-117z"/><path d="M451.6 154.1l4.7 2s-104.8 31.6-141.5 117.3C297 314.9 403 407.6 383.1 454c-27.4 63.9-184.2 86.9-206.1 138-26.9 62.7 35 133.8 35 133.8l-4.7-2s-61.9-71.1-35-133.7c21.9-51 178.7-74 206.1-138.1 19.9-46.5-86-139.3-68.2-180.8 36.7-85.6 141.4-117.1 141.4-117.1z"/><path d="M442.2 150.1l4.7 2s-104.8 31.6-141.5 117.3c-17.8 41.4 88.3 134.1 68.3 180.5-27.4 63.9-184.2 86.9-206.1 138-26.9 62.7 35 133.8 35 133.8l-4.7-2s-61.9-71.1-35-133.7c21.9-51 178.7-74 206.1-138.1 19.9-46.5-86-139.3-68.2-180.8 36.7-85.6 141.4-117 141.4-117z"/><path d="M432.8 146.1l4.7 2S332.7 179.7 296 265.4c-17.8 41.4 88.3 134.1 68.3 180.5-27.4 63.9-184.2 86.9-206.1 138-26.9 62.7 35 133.8 35 133.8l-4.7-2s-61.9-71.1-35-133.7c21.9-51 178.7-74 206.1-138.1 19.9-46.5-86-139.3-68.2-180.8 36.7-85.5 141.4-117 141.4-117z"/><path d="M423.4 142.1l4.7 2s-104.8 31.6-141.5 117.3c-17.8 41.4 88.3 134.1 68.3 180.5-27.4 63.9-184.2 86.9-206.1 138-26.9 62.7 35 133.8 35 133.8l-4.7-2s-61.9-71.1-35-133.7c21.9-51 178.7-74 206.1-138.1 19.9-46.5-86-139.3-68.2-180.8 36.6-85.6 141.4-117 141.4-117z"/><path d="M414 138.1l4.7 2s-104.8 31.6-141.5 117.3c-17.8 41.4 88.3 134.1 68.3 180.5-27.4 63.9-184.2 86.9-206.1 138-26.9 62.7 35 133.8 35 133.8l-4.7-2s-61.9-71.1-35-133.7c21.9-51 178.7-74 206.1-138.1 19.9-46.5-86-139.3-68.2-180.8 36.6-85.6 141.4-117 141.4-117z"/><path class="st1" d="M404.5 134l4.7 2s-104.8 31.6-141.5 117.3C249.9 294.8 356 387.4 336 433.8c-27.4 63.9-184.2 86.9-206.1 138-26.9 62.7 35 133.8 35 133.8l-4.7-2s-61.9-71.1-35-133.7c21.9-51 178.7-74 206.1-138.1 19.9-46.5-86-139.3-68.2-180.8 36.7-85.5 141.4-117 141.4-117z"/><path d="M1165.9 460.5l4.7 2s-104.8 31.6-141.5 117.3c-17.8 41.4 88.3 134.1 68.3 180.5-27.4 63.9-184.2 86.9-206.1 138-26.9 62.7 35 133.8 35 133.8l-4.7-2s-61.9-71.1-35-133.7c21.9-51 178.7-74 206.1-138.1 19.9-46.5-86-139.3-68.2-180.8 36.7-85.6 141.4-117 141.4-117z"/><path d="M1156.5 456.4l4.7 2s-104.8 31.6-141.5 117.3c-17.8 41.4 88.3 134.1 68.3 180.5-27.4 63.9-184.2 86.9-206.1 138-26.9 62.7 35 133.8 35 133.8l-4.7-2s-61.9-71.1-35-133.7c21.9-51 178.7-74 206.1-138.1 19.9-46.5-86-139.3-68.2-180.8 36.7-85.5 141.4-117 141.4-117z"/><path d="M1147.1 452.4l4.7 2S1047 486 1010.3 571.7c-17.8 41.4 88.3 134.1 68.3 180.5-27.4 63.9-184.2 86.9-206.1 138-26.9 62.7 35 133.8 35 133.8l-4.7-2s-61.9-71.1-35-133.7c21.9-51 178.7-74 206.1-138.1 19.9-46.5-86-139.3-68.2-180.8 36.7-85.6 141.4-117 141.4-117z"/><path d="M1137.7 448.4l4.7 2s-104.8 31.6-141.5 117.3c-17.8 41.4 88.3 134.1 68.3 180.5-27.4 63.9-184.2 86.9-206.1 138-26.9 62.7 35 133.8 35 133.8l-4.7-2s-61.9-71.1-35-133.7c21.9-51 178.7-74 206.1-138.1 19.9-46.5-86-139.3-68.2-180.8 36.7-85.5 141.4-117 141.4-117z"/><path d="M1128.3 444.4l4.7 2S1028.2 478 991.5 563.7c-17.8 41.4 88.3 134.1 68.3 180.5-27.4 63.9-184.2 86.9-206.1 138-26.9 62.7 35 133.8 35 133.8l-4.7-2s-61.9-71.1-35-133.7c21.9-51 178.7-74 206.1-138.1 19.9-46.5-86-139.3-68.2-180.8 36.7-85.6 141.4-117 141.4-117z"/><path d="M1118.9 440.4l4.7 2S1018.8 474 982.1 559.7c-17.8 41.4 88.3 134.1 68.3 180.5-27.4 63.9-184.2 86.9-206.1 138-26.9 62.7 35 133.8 35 133.8l-4.7-2s-61.9-71.1-35-133.7c21.9-51 178.7-74 206.1-138.1 19.9-46.5-86-139.3-68.2-180.8 36.7-85.6 141.4-117 141.4-117z"/><path d="M1109.5 436.3l4.7 2s-104.8 31.6-141.5 117.3C954.9 597 1061 689.7 1041 736.1c-27.4 63.9-184.2 86.9-206.1 138-26.9 62.7 35 133.8 35 133.8l-4.7-2s-61.9-71.1-35-133.7c21.9-51 178.7-74 206.1-138.1 19.9-46.5-86-139.3-68.2-180.8 36.6-85.5 141.4-117 141.4-117z"/><path d="M1100.1 432.3l4.7 2S1000 465.9 963.3 551.6c-17.8 41.4 88.3 134.1 68.3 180.5-27.4 63.9-184.2 86.9-206.1 138-26.9 62.7 35 133.8 35 133.8l-4.7-2s-61.9-71.1-35-133.7c21.9-51 178.7-74 206.1-138.1 19.9-46.5-86-139.3-68.2-180.8 36.6-85.6 141.4-117 141.4-117z"/><path d="M1090.6 428.2l4.7 2s-104.8 31.6-141.5 117.3c-17.8 41.4 88.3 134.1 68.3 180.5-27.4 63.9-184.2 86.9-206.1 138-26.9 62.7 35 133.8 35 133.8l-4.7-2s-61.9-71.1-35-133.7c21.9-51 178.7-74 206.1-138.1 19.9-46.5-86-139.3-68.2-180.8 36.7-85.5 141.4-117 141.4-117z"/><path d="M1081.3 424.2l4.7 2s-104.8 31.6-141.5 117.3c-17.8 41.4 88.3 134.1 68.3 180.5-27.4 63.9-184.2 86.9-206.1 138-26.9 62.7 35 133.8 35 133.8l-4.7-2s-61.9-71.1-35-133.7c21.9-51 178.7-74 206.1-138.1 19.9-46.5-86-139.3-68.2-180.8 36.6-85.6 141.4-117 141.4-117z"/><path d="M1071.9 420.2l4.7 2s-104.8 31.6-141.5 117.3c-17.8 41.4 88.3 134.1 68.3 180.5-27.4 63.9-184.2 86.9-206.1 138-26.9 62.7 35 133.8 35 133.8l-4.7-2s-61.9-71.1-35-133.7c21.9-51 178.7-74 206.1-138.1 19.9-46.5-86-139.3-68.2-180.8 36.7-85.6 141.4-117 141.4-117z"/><path d="M1062.5 416.1l4.7 2s-104.8 31.6-141.5 117.3c-17.8 41.4 88.3 134.1 68.3 180.5-27.4 63.9-184.2 86.9-206.1 138-26.9 62.7 35 133.8 35 133.8l-4.7-2s-61.9-71.1-35-133.7c21.9-51 178.7-74 206.1-138.1 19.9-46.5-86-139.3-68.2-180.8 36.7-85.5 141.4-117 141.4-117z"/><path d="M1053.1 412.2l4.7 2S953 445.8 916.3 531.5c-17.8 41.4 88.3 134.1 68.3 180.5-27.4 63.9-184.2 86.9-206.1 138-26.9 62.7 35 133.8 35 133.8l-4.7-2s-61.9-71.1-35-133.7c21.9-51 178.7-74 206.1-138.1 19.9-46.5-86-139.3-68.2-180.8 36.7-85.7 141.4-117 141.4-117z"/><path d="M1043.7 408.1l4.7 2s-104.8 31.6-141.5 117.3c-17.8 41.4 88.3 134.1 68.3 180.5-27.4 63.9-184.2 86.9-206.1 138-26.9 62.7 35 133.8 35 133.8l-4.7-2s-61.9-71.1-35-133.7c21.9-51 178.7-74 206.1-138.1 19.9-46.5-86-139.3-68.2-180.8 36.7-85.5 141.4-117 141.4-117z"/><path d="M1034.3 404.1l4.7 2s-104.8 31.6-141.5 117.3c-17.8 41.4 88.3 134.1 68.3 180.5-27.4 63.9-184.2 86.9-206.1 138-26.9 62.7 35 133.8 35 133.8l-4.7-2s-61.9-71.1-35-133.7c21.9-51 178.7-74 206.1-138.1 19.9-46.5-86-139.3-68.2-180.8 36.7-85.6 141.4-117 141.4-117z"/><path d="M1024.9 400l4.7 2s-104.8 31.6-141.5 117.3c-17.8 41.4 88.3 134.1 68.3 180.5-27.4 63.9-184.2 86.9-206.1 138-26.9 62.7 35 133.8 35 133.8l-4.7-2s-61.9-71.1-35-133.7c21.9-51 178.7-74 206.1-138.1 19.9-46.5-86-139.3-68.2-180.8 36.7-85.5 141.4-117 141.4-117z"/><path d="M1015.5 396l4.7 2s-104.8 31.6-141.5 117.3C860.9 556.7 967 649.4 947 695.8c-27.4 63.9-184.2 86.9-206.1 138-26.9 62.7 35 133.8 35 133.8l-4.7-2s-61.9-71.1-35-133.7c21.9-51 178.7-74 206.1-138.1 19.9-46.5-86-139.3-68.2-180.8 36.7-85.6 141.4-117 141.4-117z"/><path d="M1034.3 404.1l4.7 2s-104.8 31.6-141.5 117.3c-17.8 41.4 88.3 134.1 68.3 180.5-27.4 63.9-184.2 86.9-206.1 138-26.9 62.7 35 133.8 35 133.8l-4.7-2s-61.9-71.1-35-133.7c21.9-51 178.7-74 206.1-138.1 19.9-46.5-86-139.3-68.2-180.8 36.7-85.6 141.4-117 141.4-117z"/><path d="M1024.9 400l4.7 2s-104.8 31.6-141.5 117.3c-17.8 41.4 88.3 134.1 68.3 180.5-27.4 63.9-184.2 86.9-206.1 138-26.9 62.7 35 133.8 35 133.8l-4.7-2s-61.9-71.1-35-133.7c21.9-51 178.7-74 206.1-138.1 19.9-46.5-86-139.3-68.2-180.8 36.7-85.5 141.4-117 141.4-117z"/><path d="M1015.5 396l4.7 2s-104.8 31.6-141.5 117.3C860.9 556.7 967 649.4 947 695.8c-27.4 63.9-184.2 86.9-206.1 138-26.9 62.7 35 133.8 35 133.8l-4.7-2s-61.9-71.1-35-133.7c21.9-51 178.7-74 206.1-138.1 19.9-46.5-86-139.3-68.2-180.8 36.7-85.6 141.4-117 141.4-117z"/><path d="M1006.1 392l4.7 2S906 425.6 869.3 511.3c-17.8 41.4 88.3 134.1 68.3 180.5-27.4 63.9-184.2 86.9-206.1 138-26.9 62.7 35 133.8 35 133.8l-4.7-2s-61.9-71.1-35-133.7c21.9-51 178.7-74 206.1-138.1 19.9-46.5-86-139.3-68.2-180.8 36.7-85.6 141.4-117 141.4-117z"/><path d="M996.7 387.9l4.7 2s-104.8 31.6-141.5 117.3c-17.8 41.4 88.3 134.1 68.3 180.5-27.4 63.9-184.2 86.9-206.1 138-26.9 62.7 35 133.8 35 133.8l-4.7-2s-61.9-71.1-35-133.7c21.9-51 178.7-74 206.1-138.1 19.9-46.5-86-139.3-68.2-180.8 36.6-85.5 141.4-117 141.4-117z"/><path d="M987.3 383.9l4.7 2s-104.8 31.6-141.5 117.3c-17.8 41.4 88.3 134.1 68.3 180.5-27.4 63.9-184.2 86.9-206.1 138-26.9 62.7 35 133.8 35 133.8l-4.7-2s-61.9-71.1-35-133.7c21.9-51 178.7-74 206.1-138.1 19.9-46.5-86-139.3-68.2-180.8 36.6-85.6 141.4-117 141.4-117z"/><path d="M977.9 379.8l4.7 2s-104.8 31.6-141.5 117.3c-17.8 41.4 88.3 134.1 68.3 180.5-27.4 64-184.1 87-206 138-26.9 62.7 35 133.8 35 133.8l-4.7-2s-61.9-71.1-35-133.7c21.9-51 178.7-74 206.1-138.1 19.9-46.5-86-139.3-68.2-180.8 36.6-85.5 141.3-117 141.3-117z"/><path d="M968.5 375.8l4.7 2s-104.8 31.6-141.5 117.3C813.9 536.5 920 629.2 900 675.6c-27.4 64-184.2 87-206 138-26.9 62.7 35 133.8 35 133.8l-4.7-2s-61.9-71.1-35-133.7c21.9-51 178.7-74 206.1-138.1 19.9-46.5-86-139.3-68.2-180.8 36.6-85.6 141.3-117 141.3-117z"/><path d="M959.1 371.9l4.7 2S859 405.5 822.3 491.2c-17.8 41.4 88.3 134.1 68.3 180.5-27.4 63.9-184.2 86.9-206.1 138-26.9 62.7 35 133.8 35 133.8l-4.7-2s-61.9-71.1-35-133.7c21.9-51 178.7-74 206.1-138.1 19.9-46.5-86-139.3-68.2-180.8 36.7-85.6 141.4-117 141.4-117z"/><path d="M949.7 367.8l4.7 2s-104.8 31.6-141.5 117.3c-17.8 41.4 88.3 134.1 68.3 180.5-27.4 63.9-184.2 86.9-206.1 138-26.9 62.7 35 133.8 35 133.8l-4.7-2s-61.9-71.1-35-133.7c21.9-51 178.7-74 206.1-138.1 19.9-46.5-86-139.3-68.2-180.8 36.7-85.5 141.4-117 141.4-117z"/><path d="M940.3 363.8l4.7 2s-104.8 31.6-141.5 117.3c-17.8 41.4 88.3 134.1 68.3 180.5-27.4 63.9-184.2 86.9-206.1 138-26.9 62.7 35 133.8 35 133.8l-4.7-2s-61.9-71.1-35-133.7c21.9-51 178.7-74 206.1-138.1 19.9-46.5-86-139.3-68.2-180.8 36.7-85.6 141.4-117 141.4-117z"/><path d="M930.9 359.7l4.7 2S830.8 393.3 794.1 479c-17.8 41.4 88.3 134.1 68.3 180.5-27.4 63.9-184.2 86.9-206.1 138-26.9 62.7 35 133.8 35 133.8l-4.7-2s-61.9-71.1-35-133.7c21.9-51 178.7-74 206.1-138.1 19.9-46.5-86-139.3-68.2-180.8 36.7-85.5 141.4-117 141.4-117z"/><path d="M921.5 355.7l4.7 2S821.4 389.3 784.7 475C766.9 516.4 873 609.1 853 655.5c-27.4 63.9-184.2 86.9-206.1 138-26.8 62.7 35.1 133.8 35.1 133.8l-4.7-2s-61.9-71.1-35-133.7c21.9-51 178.7-74 206.1-138.1 19.9-46.5-86-139.3-68.2-180.8 36.6-85.6 141.3-117 141.3-117z"/><path d="M912.1 351.7l4.7 2S812 385.3 775.3 471c-17.8 41.4 88.3 134.1 68.3 180.5-27.4 63.9-184.2 86.9-206.1 138-26.9 62.7 35 133.8 35 133.8l-4.7-2s-61.9-71.1-35-133.7c21.9-51 178.7-74 206.1-138.1 19.9-46.5-86-139.3-68.2-180.8 36.7-85.6 141.4-117 141.4-117z"/><path d="M902.7 347.6l4.7 2s-104.8 31.6-141.5 117.3c-17.8 41.4 88.3 134.1 68.3 180.5-27.4 63.9-184.2 86.9-206.1 138-26.9 62.7 35 133.8 35 133.8l-4.7-2s-61.9-71.1-35-133.7c21.9-51 178.7-74 206.1-138.1 19.9-46.5-86-139.3-68.2-180.8 36.7-85.6 141.4-117 141.4-117z"/><path d="M893.3 343.6l4.7 2s-104.8 31.6-141.5 117.3c-17.8 41.4 88.3 134.1 68.3 180.5-27.4 63.9-184.2 86.9-206.1 138-26.9 62.7 35 133.8 35 133.8l-4.7-2s-61.9-71.1-35-133.7c21.9-51 178.7-74 206.1-138.1 19.9-46.5-86-139.3-68.2-180.8 36.7-85.6 141.4-117 141.4-117z"/><path d="M884 339.5l4.7 2s-104.8 31.6-141.5 117.3c-17.8 41.4 88.3 134.1 68.3 180.5-27.4 63.9-184.2 86.9-206.1 138-26.9 62.7 35 133.8 35 133.8l-4.7-2s-61.9-71.1-35-133.7c21.9-51 178.7-74 206.1-138.1 19.9-46.5-86-139.3-68.2-180.8 36.5-85.5 141.4-117 141.4-117z"/><path d="M874.6 335.6l4.7 2s-104.8 31.6-141.5 117.3C720 496.3 826.1 589 806.1 635.4c-27.4 63.9-184.2 86.9-206.1 138-26.9 62.7 35 133.8 35 133.8l-4.7-2s-61.9-71.1-35-133.7c21.9-51 178.7-74 206.1-138.1 19.9-46.5-86-139.3-68.2-180.8 36.6-85.6 141.4-117 141.4-117z"/><path d="M865.2 331.5l4.7 2s-104.8 31.6-141.5 117.3c-17.8 41.4 88.3 134.1 68.3 180.5-27.4 63.9-184.2 86.9-206.1 138-26.9 62.7 35 133.8 35 133.8l-4.7-2s-61.9-71.1-35-133.7c21.9-51 178.7-74 206.1-138.1 19.9-46.5-86-139.3-68.2-180.8 36.6-85.5 141.4-117 141.4-117z"/><path d="M855.7 327.5l4.7 2s-104.8 31.6-141.5 117.3c-17.8 41.4 88.3 134.1 68.3 180.5-27.4 63.9-184.2 86.9-206.1 138-26.9 62.7 35 133.8 35 133.8l-4.7-2s-61.9-71.1-35-133.7c21.9-51 178.7-74 206.1-138.1 19.9-46.5-86-139.3-68.2-180.8 36.7-85.6 141.4-117 141.4-117z"/><path d="M846.3 323.5l4.7 2s-104.8 31.6-141.5 117.3c-17.8 41.4 88.3 134.1 68.3 180.5-27.4 63.9-184.2 86.9-206.1 138-26.9 62.7 35 133.8 35 133.8l-4.7-2s-61.9-71.1-35-133.7c21.9-51 178.7-74 206.1-138.1 19.9-46.5-86-139.3-68.2-180.8 36.7-85.6 141.4-117 141.4-117z"/><path d="M836.9 319.4l4.7 2S736.8 353 700.1 438.7c-17.8 41.4 88.3 134.1 68.3 180.5-27.4 63.9-184.2 86.9-206.1 138-26.9 62.7 35 133.8 35 133.8l-4.7-2s-61.9-71.1-35-133.7c21.9-51 178.7-74 206.1-138.1 19.9-46.5-86-139.3-68.2-180.8 36.7-85.5 141.4-117 141.4-117z"/><path d="M827.5 315.4l4.7 2S727.4 349 690.7 434.7C672.9 476.1 779 568.8 759 615.2c-27.4 63.9-184.2 86.9-206.1 138-26.9 62.7 35 133.8 35 133.8l-4.7-2s-61.9-71.1-35-133.7c21.9-51 178.7-74 206.1-138.1 19.9-46.5-86-139.3-68.2-180.8 36.7-85.6 141.4-117 141.4-117z"/><path d="M818.1 311.3l4.7 2S718 344.9 681.3 430.6c-17.8 41.4 88.3 134.1 68.3 180.5-27.4 63.9-184.2 86.9-206.1 138-26.9 62.7 35 133.8 35 133.8l-4.7-2s-61.9-71.1-35-133.7c21.9-51 178.7-74 206.1-138.1 19.9-46.5-86-139.3-68.2-180.8 36.7-85.5 141.4-117 141.4-117z"/><path d="M808.7 307.3l4.7 2s-104.8 31.6-141.5 117.3c-17.8 41.4 88.3 134.1 68.3 180.5C712.8 671 556 694 534.1 745.1c-26.9 62.7 35 133.8 35 133.8l-4.7-2s-61.9-71.1-35-133.7c21.9-51 178.7-74 206.1-138.1 19.9-46.5-86-139.3-68.2-180.8 36.7-85.6 141.4-117 141.4-117z"/><path d="M799.3 303.3l4.7 2s-104.8 31.6-141.5 117.3c-17.8 41.4 88.3 134.1 68.3 180.5-27.4 63.9-184.2 86.9-206.1 138-26.8 62.7 35.1 133.8 35.1 133.8l-4.7-2s-61.9-71.1-35-133.7c21.9-51 178.7-74 206.1-138.1 19.9-46.5-86-139.3-68.2-180.8 36.6-85.6 141.3-117 141.3-117z"/><path d="M789.9 299.3l4.7 2s-104.8 31.6-141.5 117.3c-17.8 41.4 88.3 134.1 68.3 180.5C694 663 537.2 686 515.3 737.1c-26.9 62.7 35 133.8 35 133.8l-4.7-2s-61.9-71.1-35-133.7c21.9-51 178.7-74 206.1-138.1 19.9-46.5-86-139.3-68.2-180.8 36.7-85.6 141.4-117 141.4-117z"/><path d="M780.6 295.3l4.7 2s-104.8 31.6-141.5 117.3C626 456 732.1 548.7 712.1 595.1 684.7 659 527.9 682 506 733.1c-26.9 62.7 35 133.8 35 133.8l-4.7-2s-61.9-71.1-35-133.7c21.9-51 178.7-74 206.1-138.1 19.9-46.5-86-139.3-68.2-180.8 36.7-85.6 141.4-117 141.4-117z"/><path d="M771.2 291.2l4.7 2s-104.8 31.6-141.5 117.3c-17.8 41.4 88.3 134.1 68.3 180.5-27.4 63.9-184.2 86.9-206.1 138-26.9 62.7 35 133.8 35 133.8l-4.7-2s-61.9-71.1-35-133.7c21.9-51 178.7-74 206.1-138.1 19.9-46.5-86-139.3-68.2-180.8 36.6-85.5 141.4-117 141.4-117z"/><path d="M761.8 287.2l4.7 2S661.7 320.8 625 406.5c-17.8 41.4 88.3 134.1 68.3 180.5-27.4 63.9-184.2 86.9-206.1 138-26.9 62.7 35 133.8 35 133.8l-4.7-2s-61.9-71.1-35-133.7c21.9-51 178.7-74 206.1-138.1 19.9-46.5-86-139.3-68.2-180.8 36.6-85.6 141.4-117 141.4-117z"/><path d="M752.4 283.1l4.7 2s-104.8 31.6-141.5 117.3c-17.8 41.4 88.3 134.1 68.3 180.5-27.4 63.9-184.2 86.9-206.1 138-26.9 62.7 35 133.8 35 133.8l-4.7-2s-61.9-71.1-35-133.7c21.9-51 178.7-74 206.1-138.1 19.9-46.5-86-139.3-68.2-180.8 36.6-85.5 141.4-117 141.4-117z"/><path d="M742.9 279.1l4.7 2s-104.8 31.6-141.5 117.3c-17.8 41.4 88.3 134.1 68.3 180.5-27.4 63.9-184.2 86.9-206.1 138-26.9 62.7 35 133.8 35 133.8l-4.7-2s-61.9-71.1-35-133.7c21.9-51 178.7-74 206.1-138.1 19.9-46.5-86-139.3-68.2-180.8 36.7-85.6 141.4-117 141.4-117z"/><path d="M733.5 275.1l4.7 2s-104.8 31.6-141.5 117.3C578.9 435.9 685 528.5 665 575c-27.4 63.9-184.2 86.9-206.1 138-26.9 62.7 35 133.8 35 133.8l-4.7-2s-61.9-71.1-35-133.7c21.9-51 178.7-74 206.1-138.1 19.9-46.5-86-139.3-68.2-180.8 36.7-85.7 141.4-117.1 141.4-117.1z"/><path d="M724.1 271l4.7 2S624 304.6 587.3 390.3c-17.8 41.4 88.3 134.1 68.3 180.5-27.4 63.9-184.2 86.9-206.1 138-26.8 62.7 35.1 133.8 35.1 133.8l-4.7-2s-61.9-71.1-35-133.7c21.9-51 178.7-74 206.1-138.1 19.9-46.5-86-139.3-68.2-180.8 36.6-85.5 141.3-117 141.3-117z"/><path d="M714.7 267l4.7 2s-104.8 31.6-141.5 117.3c-17.8 41.4 88.3 134.1 68.3 180.5-27.4 63.9-184.2 86.9-206.1 138-26.8 62.7 35.1 133.8 35.1 133.8l-4.7-2s-61.9-71.1-35-133.7c21.9-51 178.7-74 206.1-138.1 19.9-46.5-86-139.3-68.2-180.8 36.6-85.6 141.3-117 141.3-117z"/><path d="M705.3 262.9l4.7 2s-104.8 31.6-141.5 117.3c-17.8 41.4 88.3 134.1 68.3 180.5-27.4 63.9-184.2 86.9-206.1 138-26.9 62.7 35 133.8 35 133.8l-4.7-2s-61.9-71.1-35-133.7c21.9-51 178.7-74 206.1-138.1 19.9-46.5-86-139.3-68.2-180.8 36.7-85.5 141.4-117 141.4-117z"/><path d="M695.9 259l4.7 2s-104.8 31.6-141.5 117.3c-17.8 41.4 88.3 134.1 68.3 180.5-27.4 63.9-184.2 86.9-206.1 138-26.9 62.7 35 133.8 35 133.8l-4.7-2s-61.9-71.1-35-133.7c21.9-51 178.7-74 206.1-138.1 19.9-46.5-86-139.3-68.2-180.8 36.7-85.6 141.4-117 141.4-117z"/><path d="M686.6 255l4.7 2s-104.8 31.6-141.5 117.3C532 415.7 638 508.4 618.1 554.8c-27.4 63.9-184.2 86.9-206.1 138-26.9 62.7 35 133.8 35 133.8l-4.7-2s-61.9-71.1-35-133.7c21.9-51 178.7-74 206.1-138.1 19.9-46.5-86-139.3-68.2-180.8 36.6-85.6 141.4-117 141.4-117z"/><path d="M677.2 250.9l4.7 2s-104.8 31.6-141.5 117.3c-17.8 41.4 88.3 134.1 68.3 180.5-27.4 63.9-184.2 86.9-206.1 138-26.9 62.7 35 133.8 35 133.8l-4.7-2s-61.9-71.1-35-133.7c21.9-51 178.7-74 206.1-138.1 19.9-46.5-86-139.3-68.2-180.8 36.7-85.5 141.4-117 141.4-117z"/><path d="M667.8 246.9l4.7 2S567.7 280.5 531 366.2c-17.8 41.4 88.3 134.1 68.3 180.5-27.4 63.9-184.2 86.9-206.1 138-26.9 62.7 35 133.8 35 133.8l-4.7-2s-61.9-71.1-35-133.7c21.9-51 178.7-74 206.1-138.1 19.9-46.5-86-139.3-68.2-180.8 36.7-85.6 141.4-117 141.4-117z"/><path d="M658.4 242.8l4.7 2s-104.8 31.6-141.5 117.3c-17.9 41.5 88.2 134.1 68.3 180.5-27.5 64-184.2 87-206.1 138-26.9 62.7 35 133.8 35 133.8l-4.7-2s-61.9-71.1-35-133.7c21.9-51.1 178.6-74.1 206-138.1 19.9-46.5-86-139.3-68.2-180.8 36.7-85.5 141.5-117 141.5-117z"/><path d="M649 238.8l4.7 2s-104.8 31.6-141.5 117.3c-17.8 41.4 88.3 134.1 68.3 180.5-27.5 64-184.2 87-206.1 138-26.9 62.7 35 133.8 35 133.8l-4.7-2s-61.9-71.1-35-133.7c21.9-51 178.7-74 206.1-138.1 19.9-46.5-86-139.3-68.2-180.8 36.6-85.6 141.4-117 141.4-117z"/><path d="M639.6 234.7l4.7 2S539.5 268.3 502.8 354C484.9 395.5 591 488.1 571 534.6c-27.4 63.9-184.2 86.9-206.1 138-26.9 62.7 35 133.8 35 133.8l-4.7-2s-61.9-71.1-35-133.7c21.9-51 178.7-74 206.1-138.1 19.9-46.5-86-139.3-68.2-180.8 36.7-85.6 141.5-117.1 141.5-117.1z"/><path d="M630.1 230.7l4.7 2S530 264.3 493.3 350c-17.8 41.4 88.3 134.1 68.3 180.5-27.4 63.9-184.2 86.9-206.1 138-26.9 62.7 35 133.8 35 133.8l-4.7-2s-61.9-71.1-35-133.7c21.9-51 178.7-74 206.1-138.1 19.9-46.5-86-139.3-68.2-180.8 36.7-85.6 141.4-117 141.4-117z"/><path d="M620.7 226.7l4.7 2S520.6 260.3 483.9 346c-17.8 41.4 88.3 134.1 68.3 180.5-27.4 63.9-184.2 86.9-206.1 138-26.9 62.7 35 133.8 35 133.8l-4.7-2s-61.9-71.1-35-133.7c21.9-51 178.7-74 206.1-138.1 19.9-46.5-86-139.3-68.2-180.8 36.7-85.6 141.4-117 141.4-117z"/><path d="M611.3 222.7l4.7 2S511.2 256.3 474.5 342c-17.8 41.4 88.3 134.1 68.3 180.5-27.4 63.9-184.2 86.9-206.1 138-26.9 62.7 35 133.8 35 133.8l-4.7-2s-61.9-71.1-35-133.7c21.9-51 178.7-74 206.1-138.1 19.9-46.5-86-139.3-68.2-180.8 36.7-85.5 141.4-117 141.4-117z"/><path d="M601.9 218.7l4.7 2S501.8 252.3 465.1 338c-17.8 41.4 88.3 134.1 68.4 180.5-27.4 63.9-184.2 86.9-206.1 138-26.9 62.7 35 133.8 35 133.8l-4.7-2s-61.9-71.1-35-133.7c21.9-51 178.7-74 206.1-138.1 19.9-46.5-86-139.3-68.2-180.8 36.6-85.6 141.3-117 141.3-117z"/><path d="M592.5 214.6l4.7 2s-104.8 31.6-141.5 117.3c-17.8 41.5 88.3 134.2 68.4 180.5-27.4 63.9-184.2 86.9-206.1 138-26.9 62.7 35 133.8 35 133.8l-4.7-2s-61.9-71.1-35-133.7c21.9-51 178.7-74 206.1-138.1 19.9-46.5-86-139.3-68.2-180.8 36.6-85.5 141.3-117 141.3-117z"/><path d="M583.2 210.6l4.7 2s-104.8 31.6-141.5 117.3c-17.8 41.4 88.3 134.1 68.3 180.5-27.4 63.9-184.2 86.9-206.1 138-26.9 62.7 35 133.8 35 133.8l-4.7-2s-61.9-71.1-35-133.7c21.9-51 178.7-74 206.1-138.1 19.9-46.5-86-139.3-68.2-180.8 36.7-85.6 141.4-117 141.4-117z"/><path d="M573.8 206.6l4.7 2S473.7 240.2 437 325.9c-17.8 41.4 88.3 134.1 68.3 180.5-27.4 63.9-184.2 86.9-206.1 138-26.9 62.7 35 133.8 35 133.8l-4.7-2s-61.9-71.1-35-133.7c21.9-51 178.7-74 206.1-138.1 19.9-46.5-86-139.3-68.2-180.8 36.7-85.6 141.4-117 141.4-117z"/><path d="M564.4 202.5l4.7 2s-104.8 31.6-141.5 117.3c-17.8 41.4 88.3 134.1 68.3 180.5-27.4 63.9-184.2 86.9-206.1 138-26.9 62.7 35 133.8 35 133.8l-4.7-2s-61.9-71.1-35-133.7c21.9-51 178.7-74 206.1-138.1 19.9-46.5-86-139.3-68.2-180.8 36.7-85.5 141.4-117 141.4-117z"/></g></g></svg>